%TF.GenerationSoftware,KiCad,Pcbnew,9.0.7*%
%TF.CreationDate,2026-02-01T22:04:42+05:30*%
%TF.ProjectId,STM32H7_Control_Board,53544d33-3248-4375-9f43-6f6e74726f6c,rev?*%
%TF.SameCoordinates,Original*%
%TF.FileFunction,Profile,NP*%
%FSLAX46Y46*%
G04 Gerber Fmt 4.6, Leading zero omitted, Abs format (unit mm)*
G04 Created by KiCad (PCBNEW 9.0.7) date 2026-02-01 22:04:42*
%MOMM*%
%LPD*%
G01*
G04 APERTURE LIST*
G04 Aperture macros list*
%AMRoundRect*
0 Rectangle with rounded corners*
0 $1 Rounding radius*
0 $2 $3 $4 $5 $6 $7 $8 $9 X,Y pos of 4 corners*
0 Add a 4 corners polygon primitive as box body*
4,1,4,$2,$3,$4,$5,$6,$7,$8,$9,$2,$3,0*
0 Add four circle primitives for the rounded corners*
1,1,$1+$1,$2,$3*
1,1,$1+$1,$4,$5*
1,1,$1+$1,$6,$7*
1,1,$1+$1,$8,$9*
0 Add four rect primitives between the rounded corners*
20,1,$1+$1,$2,$3,$4,$5,0*
20,1,$1+$1,$4,$5,$6,$7,0*
20,1,$1+$1,$6,$7,$8,$9,0*
20,1,$1+$1,$8,$9,$2,$3,0*%
G04 Aperture macros list end*
%TA.AperFunction,Profile*%
%ADD10C,0.050000*%
%TD*%
%TA.AperFunction,ComponentPad*%
%ADD11C,1.700000*%
%TD*%
%TA.AperFunction,ComponentPad*%
%ADD12R,1.700000X1.700000*%
%TD*%
%TA.AperFunction,HeatsinkPad*%
%ADD13C,0.500000*%
%TD*%
%TA.AperFunction,HeatsinkPad*%
%ADD14R,1.200000X1.500000*%
%TD*%
%ADD15C,1.700000*%
%ADD16R,1.700000X1.700000*%
%TA.AperFunction,SMDPad,CuDef*%
%ADD17RoundRect,0.075000X-0.725000X-0.075000X0.725000X-0.075000X0.725000X0.075000X-0.725000X0.075000X0*%
%TD*%
%TA.AperFunction,SMDPad,CuDef*%
%ADD18RoundRect,0.075000X-0.075000X-0.725000X0.075000X-0.725000X0.075000X0.725000X-0.075000X0.725000X0*%
%TD*%
%TA.AperFunction,SMDPad,CuDef*%
%ADD19RoundRect,0.200000X-0.200000X-0.275000X0.200000X-0.275000X0.200000X0.275000X-0.200000X0.275000X0*%
%TD*%
%TA.AperFunction,SMDPad,CuDef*%
%ADD20RoundRect,0.250000X-2.050000X-0.300000X2.050000X-0.300000X2.050000X0.300000X-2.050000X0.300000X0*%
%TD*%
%TA.AperFunction,SMDPad,CuDef*%
%ADD21RoundRect,0.250002X-4.449998X-5.149998X4.449998X-5.149998X4.449998X5.149998X-4.449998X5.149998X0*%
%TD*%
%TA.AperFunction,SMDPad,CuDef*%
%ADD22R,1.700000X1.000000*%
%TD*%
%TA.AperFunction,SMDPad,CuDef*%
%ADD23RoundRect,0.087500X-0.250000X-0.087500X0.250000X-0.087500X0.250000X0.087500X-0.250000X0.087500X0*%
%TD*%
%TA.AperFunction,SMDPad,CuDef*%
%ADD24RoundRect,0.250000X-0.275000X-0.350000X0.275000X-0.350000X0.275000X0.350000X-0.275000X0.350000X0*%
%TD*%
%TA.AperFunction,SMDPad,CuDef*%
%ADD25RoundRect,0.225000X-0.225000X-0.375000X0.225000X-0.375000X0.225000X0.375000X-0.225000X0.375000X0*%
%TD*%
%TA.AperFunction,Conductor*%
%ADD26C,0.200000*%
%TD*%
%ADD27RoundRect,0.075000X-0.725000X-0.075000X0.725000X-0.075000X0.725000X0.075000X-0.725000X0.075000X0*%
%ADD28RoundRect,0.075000X-0.075000X-0.725000X0.075000X-0.725000X0.075000X0.725000X-0.075000X0.725000X0*%
%ADD29RoundRect,0.200000X-0.200000X-0.275000X0.200000X-0.275000X0.200000X0.275000X-0.200000X0.275000X0*%
%ADD30RoundRect,0.250000X-2.050000X-0.300000X2.050000X-0.300000X2.050000X0.300000X-2.050000X0.300000X0*%
%ADD31RoundRect,0.250002X-4.449998X-5.149998X4.449998X-5.149998X4.449998X5.149998X-4.449998X5.149998X0*%
%ADD32R,1.700000X1.000000*%
%ADD33R,1.200000X1.500000*%
%ADD34RoundRect,0.087500X-0.250000X-0.087500X0.250000X-0.087500X0.250000X0.087500X-0.250000X0.087500X0*%
%ADD35RoundRect,0.250000X-0.275000X-0.350000X0.275000X-0.350000X0.275000X0.350000X-0.275000X0.350000X0*%
%ADD36RoundRect,0.225000X-0.225000X-0.375000X0.225000X-0.375000X0.225000X0.375000X-0.225000X0.375000X0*%
%ADD37RoundRect,0.250000X-2.025000X-2.375000X2.025000X-2.375000X2.025000X2.375000X-2.025000X2.375000X0*%
%ADD38RoundRect,0.130000X-0.130000X-0.195000X0.130000X-0.195000X0.130000X0.195000X-0.130000X0.195000X0*%
%ADD39C,0.150000*%
%ADD40C,0.120000*%
G04 APERTURE END LIST*
D10*
X123500000Y-84500000D02*
X203500000Y-84500000D01*
X203500000Y-145000000D01*
X123500000Y-145000000D01*
X123500000Y-84500000D01*
D11*
%TO.P,C2,2*%
%TO.N,GND*%
X143000000Y-123765000D03*
D12*
%TO.P,C2,1*%
%TO.N,Net-(5V_MAIN1-Pad2)*%
X143000000Y-121225000D03*
%TD*%
D11*
%TO.P,C3,2*%
%TO.N,GND*%
X149500000Y-123765000D03*
D12*
%TO.P,C3,1*%
%TO.N,3V3_ANALOG*%
X149500000Y-121225000D03*
%TD*%
D11*
%TO.P,J1,2,Pin_2*%
%TO.N,GND*%
X130000000Y-94500000D03*
D12*
%TO.P,J1,1,Pin_1*%
%TO.N,3V3_DIGITAL*%
X130000000Y-91960000D03*
%TD*%
D11*
%TO.P,J2,6,Pin_6*%
%TO.N,unconnected-(J2-Pin_6-Pad6)*%
X198000000Y-103850000D03*
%TO.P,J2,5,Pin_5*%
%TO.N,unconnected-(J2-Pin_5-Pad5)*%
X198000000Y-101310000D03*
%TO.P,J2,4,Pin_4*%
%TO.N,GND*%
X198000000Y-98770000D03*
%TO.P,J2,3,Pin_3*%
%TO.N,Net-(J2-Pin_3)*%
X198000000Y-96230000D03*
%TO.P,J2,2,Pin_2*%
%TO.N,/SWCLK*%
X198000000Y-93690000D03*
D12*
%TO.P,J2,1,Pin_1*%
%TO.N,/SWDIO*%
X198000000Y-91150000D03*
%TD*%
D13*
%TO.P,U1,9,EP*%
%TO.N,unconnected-(U1-EP-Pad9)*%
X185212500Y-114250000D03*
X185212500Y-113250000D03*
D14*
X184862500Y-113750000D03*
D13*
X184512500Y-114250000D03*
X184512500Y-113250000D03*
%TD*%
D11*
%TO.P,C1,2*%
%TO.N,unconnected-(C1-Pad2)*%
X136500000Y-122765000D03*
D12*
%TO.P,C1,1*%
%TO.N,3V3_DIGITAL*%
X136500000Y-120225000D03*
%TD*%
%TA.AperFunction,Conductor*%
%TO.N,GND*%
G36*
X202942539Y-85020185D02*
G01*
X202988294Y-85072989D01*
X202999500Y-85124500D01*
X202999500Y-144375500D01*
X202979815Y-144442539D01*
X202927011Y-144488294D01*
X202875500Y-144499500D01*
X124124500Y-144499500D01*
X124057461Y-144479815D01*
X124011706Y-144427011D01*
X124000500Y-144375500D01*
X124000500Y-119327135D01*
X135149500Y-119327135D01*
X135149500Y-121122870D01*
X135149501Y-121122876D01*
X135155908Y-121182483D01*
X135206202Y-121317328D01*
X135206206Y-121317335D01*
X135292452Y-121432544D01*
X135292455Y-121432547D01*
X135407664Y-121518793D01*
X135407671Y-121518797D01*
X135539082Y-121567810D01*
X135595016Y-121609681D01*
X135619433Y-121675145D01*
X135604582Y-121743418D01*
X135583431Y-121771673D01*
X135469889Y-121885215D01*
X135344951Y-122057179D01*
X135248444Y-122246585D01*
X135182753Y-122448760D01*
X135149500Y-122658713D01*
X135149500Y-122871286D01*
X135182753Y-123081239D01*
X135248444Y-123283414D01*
X135344951Y-123472820D01*
X135469890Y-123644786D01*
X135620213Y-123795109D01*
X135792179Y-123920048D01*
X135792181Y-123920049D01*
X135792184Y-123920051D01*
X135981588Y-124016557D01*
X136183757Y-124082246D01*
X136393713Y-124115500D01*
X136393714Y-124115500D01*
X136606286Y-124115500D01*
X136606287Y-124115500D01*
X136816243Y-124082246D01*
X137018412Y-124016557D01*
X137207816Y-123920051D01*
X137330625Y-123830826D01*
X137379786Y-123795109D01*
X137379788Y-123795106D01*
X137379792Y-123795104D01*
X137530104Y-123644792D01*
X137530106Y-123644788D01*
X137530109Y-123644786D01*
X137576455Y-123580996D01*
X137615706Y-123526969D01*
X137655051Y-123472816D01*
X137751557Y-123283412D01*
X137817246Y-123081243D01*
X137850500Y-122871287D01*
X137850500Y-122658713D01*
X137817246Y-122448757D01*
X137751557Y-122246588D01*
X137655051Y-122057184D01*
X137655049Y-122057181D01*
X137655048Y-122057179D01*
X137530109Y-121885213D01*
X137416569Y-121771673D01*
X137383084Y-121710350D01*
X137388068Y-121640658D01*
X137429940Y-121584725D01*
X137460915Y-121567810D01*
X137592331Y-121518796D01*
X137707546Y-121432546D01*
X137793796Y-121317331D01*
X137844091Y-121182483D01*
X137850500Y-121122873D01*
X137850499Y-120327135D01*
X141649500Y-120327135D01*
X141649500Y-122122870D01*
X141649501Y-122122876D01*
X141655908Y-122182483D01*
X141706202Y-122317328D01*
X141706206Y-122317335D01*
X141792452Y-122432544D01*
X141792455Y-122432547D01*
X141907664Y-122518793D01*
X141907671Y-122518797D01*
X141952618Y-122535561D01*
X142042517Y-122569091D01*
X142102127Y-122575500D01*
X142112685Y-122575499D01*
X142179723Y-122595179D01*
X142200372Y-122611818D01*
X142870591Y-123282037D01*
X142807007Y-123299075D01*
X142692993Y-123364901D01*
X142599901Y-123457993D01*
X142534075Y-123572007D01*
X142517037Y-123635591D01*
X141884728Y-123003282D01*
X141884727Y-123003282D01*
X141845380Y-123057439D01*
X141748904Y-123246782D01*
X141683242Y-123448869D01*
X141683242Y-123448872D01*
X141650000Y-123658753D01*
X141650000Y-123871246D01*
X141683242Y-124081127D01*
X141683242Y-124081130D01*
X141748904Y-124283217D01*
X141845375Y-124472550D01*
X141884728Y-124526716D01*
X142517037Y-123894408D01*
X142534075Y-123957993D01*
X142599901Y-124072007D01*
X142692993Y-124165099D01*
X142807007Y-124230925D01*
X142870590Y-124247962D01*
X142238282Y-124880269D01*
X142238282Y-124880270D01*
X142292449Y-124919624D01*
X142481782Y-125016095D01*
X142683870Y-125081757D01*
X142893754Y-125115000D01*
X143106246Y-125115000D01*
X143316127Y-125081757D01*
X143316130Y-125081757D01*
X143518217Y-125016095D01*
X143707554Y-124919622D01*
X143761716Y-124880270D01*
X143761717Y-124880270D01*
X143129408Y-124247962D01*
X143192993Y-124230925D01*
X143307007Y-124165099D01*
X143400099Y-124072007D01*
X143465925Y-123957993D01*
X143482962Y-123894408D01*
X144115270Y-124526717D01*
X144115270Y-124526716D01*
X144154622Y-124472554D01*
X144251095Y-124283217D01*
X144316757Y-124081130D01*
X144316757Y-124081127D01*
X144350000Y-123871246D01*
X144350000Y-123658753D01*
X144316757Y-123448872D01*
X144316757Y-123448869D01*
X144251095Y-123246782D01*
X144154624Y-123057449D01*
X144115270Y-123003282D01*
X144115269Y-123003282D01*
X143482962Y-123635590D01*
X143465925Y-123572007D01*
X143400099Y-123457993D01*
X143307007Y-123364901D01*
X143192993Y-123299075D01*
X143129409Y-123282037D01*
X143799627Y-122611818D01*
X143860950Y-122578333D01*
X143887307Y-122575499D01*
X143897872Y-122575499D01*
X143957483Y-122569091D01*
X144092331Y-122518796D01*
X144207546Y-122432546D01*
X144293796Y-122317331D01*
X144344091Y-122182483D01*
X144350500Y-122122873D01*
X144350499Y-120327135D01*
X148149500Y-120327135D01*
X148149500Y-122122870D01*
X148149501Y-122122876D01*
X148155908Y-122182483D01*
X148206202Y-122317328D01*
X148206206Y-122317335D01*
X148292452Y-122432544D01*
X148292455Y-122432547D01*
X148407664Y-122518793D01*
X148407671Y-122518797D01*
X148452618Y-122535561D01*
X148542517Y-122569091D01*
X148602127Y-122575500D01*
X148612685Y-122575499D01*
X148679723Y-122595179D01*
X148700372Y-122611818D01*
X149370591Y-123282037D01*
X149307007Y-123299075D01*
X149192993Y-123364901D01*
X149099901Y-123457993D01*
X149034075Y-123572007D01*
X149017037Y-123635591D01*
X148384728Y-123003282D01*
X148384727Y-123003282D01*
X148345380Y-123057439D01*
X148248904Y-123246782D01*
X148183242Y-123448869D01*
X148183242Y-123448872D01*
X148150000Y-123658753D01*
X148150000Y-123871246D01*
X148183242Y-124081127D01*
X148183242Y-124081130D01*
X148248904Y-124283217D01*
X148345375Y-124472550D01*
X148384728Y-124526716D01*
X149017037Y-123894408D01*
X149034075Y-123957993D01*
X149099901Y-124072007D01*
X149192993Y-124165099D01*
X149307007Y-124230925D01*
X149370590Y-124247962D01*
X148738282Y-124880269D01*
X148738282Y-124880270D01*
X148792449Y-124919624D01*
X148981782Y-125016095D01*
X149183870Y-125081757D01*
X149393754Y-125115000D01*
X149606246Y-125115000D01*
X149816127Y-125081757D01*
X149816130Y-125081757D01*
X150018217Y-125016095D01*
X150207554Y-124919622D01*
X150261716Y-124880270D01*
X150261717Y-124880270D01*
X149629408Y-124247962D01*
X149692993Y-124230925D01*
X149807007Y-124165099D01*
X149900099Y-124072007D01*
X149965925Y-123957993D01*
X149982962Y-123894409D01*
X150615270Y-124526717D01*
X150615270Y-124526716D01*
X150654622Y-124472554D01*
X150751095Y-124283217D01*
X150816757Y-124081130D01*
X150816757Y-124081127D01*
X150850000Y-123871246D01*
X150850000Y-123658753D01*
X150816757Y-123448872D01*
X150816757Y-123448869D01*
X150751095Y-123246782D01*
X150654624Y-123057449D01*
X150615270Y-123003282D01*
X150615269Y-123003282D01*
X149982962Y-123635590D01*
X149965925Y-123572007D01*
X149900099Y-123457993D01*
X149807007Y-123364901D01*
X149692993Y-123299075D01*
X149629409Y-123282037D01*
X150299627Y-122611818D01*
X150360950Y-122578333D01*
X150387307Y-122575499D01*
X150397872Y-122575499D01*
X150457483Y-122569091D01*
X150592331Y-122518796D01*
X150707546Y-122432546D01*
X150793796Y-122317331D01*
X150844091Y-122182483D01*
X150850500Y-122122873D01*
X150850499Y-120327128D01*
X150844091Y-120267517D01*
X150793796Y-120132669D01*
X150793795Y-120132668D01*
X150793793Y-120132664D01*
X150707547Y-120017455D01*
X150707544Y-120017452D01*
X150592335Y-119931206D01*
X150592328Y-119931202D01*
X150457482Y-119880908D01*
X150457483Y-119880908D01*
X150397883Y-119874501D01*
X150397881Y-119874500D01*
X150397873Y-119874500D01*
X150397864Y-119874500D01*
X148602129Y-119874500D01*
X148602123Y-119874501D01*
X148542516Y-119880908D01*
X148407671Y-119931202D01*
X148407664Y-119931206D01*
X148292455Y-120017452D01*
X148292452Y-120017455D01*
X148206206Y-120132664D01*
X148206202Y-120132671D01*
X148155908Y-120267517D01*
X148149857Y-120323805D01*
X148149501Y-120327123D01*
X148149500Y-120327135D01*
X144350499Y-120327135D01*
X144350499Y-120327128D01*
X144344091Y-120267517D01*
X144293796Y-120132669D01*
X144293795Y-120132668D01*
X144293793Y-120132664D01*
X144207547Y-120017455D01*
X144207544Y-120017452D01*
X144092335Y-119931206D01*
X144092328Y-119931202D01*
X143957482Y-119880908D01*
X143957483Y-119880908D01*
X143897883Y-119874501D01*
X143897881Y-119874500D01*
X143897873Y-119874500D01*
X143897864Y-119874500D01*
X142102129Y-119874500D01*
X142102123Y-119874501D01*
X142042516Y-119880908D01*
X141907671Y-119931202D01*
X141907664Y-119931206D01*
X141792455Y-120017452D01*
X141792452Y-120017455D01*
X141706206Y-120132664D01*
X141706202Y-120132671D01*
X141655908Y-120267517D01*
X141649857Y-120323805D01*
X141649501Y-120327123D01*
X141649500Y-120327135D01*
X137850499Y-120327135D01*
X137850499Y-120132671D01*
X137850499Y-119327129D01*
X137850498Y-119327123D01*
X137850497Y-119327116D01*
X137844091Y-119267517D01*
X137793796Y-119132669D01*
X137793795Y-119132668D01*
X137793793Y-119132664D01*
X137707547Y-119017455D01*
X137707544Y-119017452D01*
X137592335Y-118931206D01*
X137592328Y-118931202D01*
X137457482Y-118880908D01*
X137457483Y-118880908D01*
X137397883Y-118874501D01*
X137397881Y-118874500D01*
X137397873Y-118874500D01*
X137397864Y-118874500D01*
X135602129Y-118874500D01*
X135602123Y-118874501D01*
X135542516Y-118880908D01*
X135407671Y-118931202D01*
X135407664Y-118931206D01*
X135292455Y-119017452D01*
X135292452Y-119017455D01*
X135206206Y-119132664D01*
X135206202Y-119132671D01*
X135155908Y-119267517D01*
X135149501Y-119327116D01*
X135149501Y-119327123D01*
X135149500Y-119327135D01*
X124000500Y-119327135D01*
X124000500Y-112952135D01*
X183762000Y-112952135D01*
X183762000Y-114547869D01*
X183762001Y-114547876D01*
X183768408Y-114607483D01*
X183818702Y-114742328D01*
X183818706Y-114742335D01*
X183904952Y-114857544D01*
X183904955Y-114857547D01*
X184020164Y-114943793D01*
X184020171Y-114943797D01*
X184065118Y-114960561D01*
X184155017Y-114994091D01*
X184214627Y-115000500D01*
X184438581Y-115000499D01*
X184438582Y-115000500D01*
X184586418Y-115000500D01*
X184586419Y-115000499D01*
X185130970Y-115000499D01*
X185130986Y-115000500D01*
X185138582Y-115000500D01*
X185294014Y-115000500D01*
X185294030Y-115000499D01*
X185510371Y-115000499D01*
X185510372Y-115000499D01*
X185569983Y-114994091D01*
X185704831Y-114943796D01*
X185820046Y-114857546D01*
X185906296Y-114742331D01*
X185956591Y-114607483D01*
X185963000Y-114547873D01*
X185962999Y-113323921D01*
X185963000Y-113323918D01*
X185963000Y-113176082D01*
X185962999Y-113176077D01*
X185962999Y-112952128D01*
X185956591Y-112892517D01*
X185906296Y-112757669D01*
X185906295Y-112757668D01*
X185906293Y-112757664D01*
X185820047Y-112642455D01*
X185820044Y-112642452D01*
X185704835Y-112556206D01*
X185704828Y-112556202D01*
X185569982Y-112505908D01*
X185569983Y-112505908D01*
X185510383Y-112499501D01*
X185510381Y-112499500D01*
X185510373Y-112499500D01*
X185286418Y-112499500D01*
X185138582Y-112499500D01*
X185138580Y-112499500D01*
X184586421Y-112499500D01*
X184586418Y-112499500D01*
X184438582Y-112499500D01*
X184438577Y-112499500D01*
X184214630Y-112499500D01*
X184214623Y-112499501D01*
X184155016Y-112505908D01*
X184020171Y-112556202D01*
X184020164Y-112556206D01*
X183904955Y-112642452D01*
X183904952Y-112642455D01*
X183818706Y-112757664D01*
X183818702Y-112757671D01*
X183768408Y-112892517D01*
X183762001Y-112952116D01*
X183762001Y-112952123D01*
X183762000Y-112952135D01*
X124000500Y-112952135D01*
X124000500Y-91062135D01*
X128649500Y-91062135D01*
X128649500Y-92857870D01*
X128649501Y-92857876D01*
X128655908Y-92917483D01*
X128706202Y-93052328D01*
X128706206Y-93052335D01*
X128792452Y-93167544D01*
X128792455Y-93167547D01*
X128907664Y-93253793D01*
X128907671Y-93253797D01*
X128952618Y-93270561D01*
X129042517Y-93304091D01*
X129102127Y-93310500D01*
X129112685Y-93310499D01*
X129179723Y-93330179D01*
X129200372Y-93346818D01*
X129870591Y-94017037D01*
X129807007Y-94034075D01*
X129692993Y-94099901D01*
X129599901Y-94192993D01*
X129534075Y-94307007D01*
X129517037Y-94370591D01*
X128884728Y-93738282D01*
X128884727Y-93738282D01*
X128845380Y-93792439D01*
X128748904Y-93981782D01*
X128683242Y-94183869D01*
X128683242Y-94183872D01*
X128650000Y-94393753D01*
X128650000Y-94606246D01*
X128683242Y-94816127D01*
X128683242Y-94816130D01*
X128748904Y-95018217D01*
X128845375Y-95207550D01*
X128884728Y-95261716D01*
X129517037Y-94629408D01*
X129534075Y-94692993D01*
X129599901Y-94807007D01*
X129692993Y-94900099D01*
X129807007Y-94965925D01*
X129870590Y-94982962D01*
X129238282Y-95615269D01*
X129238282Y-95615270D01*
X129292449Y-95654624D01*
X129481782Y-95751095D01*
X129683870Y-95816757D01*
X129893754Y-95850000D01*
X130106246Y-95850000D01*
X130316127Y-95816757D01*
X130316130Y-95816757D01*
X130518217Y-95751095D01*
X130707554Y-95654622D01*
X130761716Y-95615270D01*
X130761717Y-95615270D01*
X130129408Y-94982962D01*
X130192993Y-94965925D01*
X130307007Y-94900099D01*
X130400099Y-94807007D01*
X130465925Y-94692993D01*
X130482962Y-94629408D01*
X131115270Y-95261717D01*
X131115270Y-95261716D01*
X131154622Y-95207554D01*
X131251095Y-95018217D01*
X131316757Y-94816130D01*
X131316757Y-94816127D01*
X131350000Y-94606246D01*
X131350000Y-94393753D01*
X131316757Y-94183872D01*
X131316757Y-94183869D01*
X131251095Y-93981782D01*
X131154624Y-93792449D01*
X131115270Y-93738282D01*
X131115269Y-93738282D01*
X130482962Y-94370590D01*
X130465925Y-94307007D01*
X130400099Y-94192993D01*
X130307007Y-94099901D01*
X130192993Y-94034075D01*
X130129409Y-94017037D01*
X130799627Y-93346818D01*
X130860950Y-93313333D01*
X130887307Y-93310499D01*
X130897872Y-93310499D01*
X130957483Y-93304091D01*
X131092331Y-93253796D01*
X131207546Y-93167546D01*
X131293796Y-93052331D01*
X131344091Y-92917483D01*
X131350500Y-92857873D01*
X131350499Y-91062128D01*
X131344091Y-91002517D01*
X131293796Y-90867669D01*
X131293795Y-90867668D01*
X131293793Y-90867664D01*
X131207547Y-90752455D01*
X131207544Y-90752452D01*
X131092335Y-90666206D01*
X131092328Y-90666202D01*
X130957482Y-90615908D01*
X130957483Y-90615908D01*
X130897883Y-90609501D01*
X130897881Y-90609500D01*
X130897873Y-90609500D01*
X130897864Y-90609500D01*
X129102129Y-90609500D01*
X129102123Y-90609501D01*
X129042516Y-90615908D01*
X128907671Y-90666202D01*
X128907664Y-90666206D01*
X128792455Y-90752452D01*
X128792452Y-90752455D01*
X128706206Y-90867664D01*
X128706202Y-90867671D01*
X128655908Y-91002517D01*
X128649501Y-91062116D01*
X128649501Y-91062123D01*
X128649500Y-91062135D01*
X124000500Y-91062135D01*
X124000500Y-90252135D01*
X196649500Y-90252135D01*
X196649500Y-92047870D01*
X196649501Y-92047876D01*
X196655908Y-92107483D01*
X196706202Y-92242328D01*
X196706206Y-92242335D01*
X196792452Y-92357544D01*
X196792455Y-92357547D01*
X196907664Y-92443793D01*
X196907671Y-92443797D01*
X197039082Y-92492810D01*
X197095016Y-92534681D01*
X197119433Y-92600145D01*
X197104582Y-92668418D01*
X197083431Y-92696673D01*
X196969889Y-92810215D01*
X196844951Y-92982179D01*
X196748444Y-93171585D01*
X196682753Y-93373760D01*
X196649500Y-93583713D01*
X196649500Y-93796286D01*
X196678879Y-93981782D01*
X196682754Y-94006243D01*
X196740469Y-94183872D01*
X196748444Y-94208414D01*
X196844951Y-94397820D01*
X196969890Y-94569786D01*
X197120213Y-94720109D01*
X197292182Y-94845050D01*
X197300946Y-94849516D01*
X197351742Y-94897491D01*
X197368536Y-94965312D01*
X197345998Y-95031447D01*
X197300946Y-95070484D01*
X197292182Y-95074949D01*
X197120213Y-95199890D01*
X196969890Y-95350213D01*
X196844951Y-95522179D01*
X196748444Y-95711585D01*
X196682753Y-95913760D01*
X196649500Y-96123713D01*
X196649500Y-96336286D01*
X196682753Y-96546239D01*
X196748444Y-96748414D01*
X196844951Y-96937820D01*
X196969890Y-97109786D01*
X197120213Y-97260109D01*
X197292179Y-97385048D01*
X197292181Y-97385049D01*
X197292184Y-97385051D01*
X197301493Y-97389794D01*
X197352290Y-97437766D01*
X197369087Y-97505587D01*
X197346552Y-97571722D01*
X197301505Y-97610760D01*
X197292446Y-97615376D01*
X197292440Y-97615380D01*
X197238282Y-97654727D01*
X197238282Y-97654728D01*
X197870591Y-98287037D01*
X197807007Y-98304075D01*
X197692993Y-98369901D01*
X197599901Y-98462993D01*
X197534075Y-98577007D01*
X197517037Y-98640591D01*
X196884728Y-98008282D01*
X196884727Y-98008282D01*
X196845380Y-98062439D01*
X196748904Y-98251782D01*
X196683242Y-98453869D01*
X196683242Y-98453872D01*
X196650000Y-98663753D01*
X196650000Y-98876246D01*
X196683242Y-99086127D01*
X196683242Y-99086130D01*
X196748904Y-99288217D01*
X196845375Y-99477550D01*
X196884728Y-99531716D01*
X197517037Y-98899408D01*
X197534075Y-98962993D01*
X197599901Y-99077007D01*
X197692993Y-99170099D01*
X197807007Y-99235925D01*
X197870590Y-99252962D01*
X197238282Y-99885269D01*
X197238282Y-99885270D01*
X197292452Y-99924626D01*
X197292451Y-99924626D01*
X197301495Y-99929234D01*
X197352292Y-99977208D01*
X197369087Y-100045029D01*
X197346550Y-100111164D01*
X197301499Y-100150202D01*
X197292182Y-100154949D01*
X197120213Y-100279890D01*
X196969890Y-100430213D01*
X196844951Y-100602179D01*
X196748444Y-100791585D01*
X196682753Y-100993760D01*
X196649500Y-101203713D01*
X196649500Y-101416286D01*
X196682753Y-101626239D01*
X196748444Y-101828414D01*
X196844951Y-102017820D01*
X196969890Y-102189786D01*
X197120213Y-102340109D01*
X197292182Y-102465050D01*
X197300946Y-102469516D01*
X197351742Y-102517491D01*
X197368536Y-102585312D01*
X197345998Y-102651447D01*
X197300946Y-102690484D01*
X197292182Y-102694949D01*
X197120213Y-102819890D01*
X196969890Y-102970213D01*
X196844951Y-103142179D01*
X196748444Y-103331585D01*
X196682753Y-103533760D01*
X196649500Y-103743713D01*
X196649500Y-103956286D01*
X196682753Y-104166239D01*
X196748444Y-104368414D01*
X196844951Y-104557820D01*
X196969890Y-104729786D01*
X197120213Y-104880109D01*
X197292179Y-105005048D01*
X197292181Y-105005049D01*
X197292184Y-105005051D01*
X197481588Y-105101557D01*
X197683757Y-105167246D01*
X197893713Y-105200500D01*
X197893714Y-105200500D01*
X198106286Y-105200500D01*
X198106287Y-105200500D01*
X198316243Y-105167246D01*
X198518412Y-105101557D01*
X198707816Y-105005051D01*
X198729789Y-104989086D01*
X198879786Y-104880109D01*
X198879788Y-104880106D01*
X198879792Y-104880104D01*
X199030104Y-104729792D01*
X199030106Y-104729788D01*
X199030109Y-104729786D01*
X199155048Y-104557820D01*
X199155047Y-104557820D01*
X199155051Y-104557816D01*
X199251557Y-104368412D01*
X199317246Y-104166243D01*
X199350500Y-103956287D01*
X199350500Y-103743713D01*
X199317246Y-103533757D01*
X199251557Y-103331588D01*
X199155051Y-103142184D01*
X199155049Y-103142181D01*
X199155048Y-103142179D01*
X199030109Y-102970213D01*
X198879786Y-102819890D01*
X198707820Y-102694951D01*
X198707115Y-102694591D01*
X198699054Y-102690485D01*
X198648259Y-102642512D01*
X198631463Y-102574692D01*
X198653999Y-102508556D01*
X198699054Y-102469515D01*
X198707816Y-102465051D01*
X198729789Y-102449086D01*
X198879786Y-102340109D01*
X198879788Y-102340106D01*
X198879792Y-102340104D01*
X199030104Y-102189792D01*
X199030106Y-102189788D01*
X199030109Y-102189786D01*
X199155048Y-102017820D01*
X199155047Y-102017820D01*
X199155051Y-102017816D01*
X199251557Y-101828412D01*
X199317246Y-101626243D01*
X199350500Y-101416287D01*
X199350500Y-101203713D01*
X199317246Y-100993757D01*
X199251557Y-100791588D01*
X199155051Y-100602184D01*
X199155049Y-100602181D01*
X199155048Y-100602179D01*
X199030109Y-100430213D01*
X198879786Y-100279890D01*
X198707817Y-100154949D01*
X198698504Y-100150204D01*
X198647707Y-100102230D01*
X198630912Y-100034409D01*
X198653449Y-99968274D01*
X198698507Y-99929232D01*
X198707555Y-99924622D01*
X198761716Y-99885270D01*
X198761717Y-99885270D01*
X198129408Y-99252962D01*
X198192993Y-99235925D01*
X198307007Y-99170099D01*
X198400099Y-99077007D01*
X198465925Y-98962993D01*
X198482962Y-98899409D01*
X199115270Y-99531717D01*
X199115270Y-99531716D01*
X199154622Y-99477554D01*
X199251095Y-99288217D01*
X199316757Y-99086130D01*
X199316757Y-99086127D01*
X199350000Y-98876246D01*
X199350000Y-98663753D01*
X199316757Y-98453872D01*
X199316757Y-98453869D01*
X199251095Y-98251782D01*
X199154624Y-98062449D01*
X199115270Y-98008282D01*
X199115269Y-98008282D01*
X198482962Y-98640590D01*
X198465925Y-98577007D01*
X198400099Y-98462993D01*
X198307007Y-98369901D01*
X198192993Y-98304075D01*
X198129409Y-98287037D01*
X198761716Y-97654728D01*
X198707547Y-97615373D01*
X198707547Y-97615372D01*
X198698500Y-97610763D01*
X198647706Y-97562788D01*
X198630912Y-97494966D01*
X198653451Y-97428832D01*
X198698508Y-97389793D01*
X198707816Y-97385051D01*
X198787007Y-97327515D01*
X198879786Y-97260109D01*
X198879788Y-97260106D01*
X198879792Y-97260104D01*
X199030104Y-97109792D01*
X199030106Y-97109788D01*
X199030109Y-97109786D01*
X199155048Y-96937820D01*
X199155047Y-96937820D01*
X199155051Y-96937816D01*
X199251557Y-96748412D01*
X199317246Y-96546243D01*
X199350500Y-96336287D01*
X199350500Y-96123713D01*
X199317246Y-95913757D01*
X199251557Y-95711588D01*
X199155051Y-95522184D01*
X199155049Y-95522181D01*
X199155048Y-95522179D01*
X199030109Y-95350213D01*
X198879786Y-95199890D01*
X198707820Y-95074951D01*
X198707115Y-95074591D01*
X198699054Y-95070485D01*
X198648259Y-95022512D01*
X198631463Y-94954692D01*
X198653999Y-94888556D01*
X198699054Y-94849515D01*
X198707816Y-94845051D01*
X198747627Y-94816127D01*
X198879786Y-94720109D01*
X198879788Y-94720106D01*
X198879792Y-94720104D01*
X199030104Y-94569792D01*
X199030106Y-94569788D01*
X199030109Y-94569786D01*
X199155048Y-94397820D01*
X199155047Y-94397820D01*
X199155051Y-94397816D01*
X199251557Y-94208412D01*
X199317246Y-94006243D01*
X199350500Y-93796287D01*
X199350500Y-93583713D01*
X199317246Y-93373757D01*
X199251557Y-93171588D01*
X199155051Y-92982184D01*
X199155049Y-92982181D01*
X199155048Y-92982179D01*
X199030109Y-92810213D01*
X198916569Y-92696673D01*
X198883084Y-92635350D01*
X198888068Y-92565658D01*
X198929940Y-92509725D01*
X198960915Y-92492810D01*
X199092331Y-92443796D01*
X199207546Y-92357546D01*
X199293796Y-92242331D01*
X199344091Y-92107483D01*
X199350500Y-92047873D01*
X199350499Y-90252128D01*
X199344091Y-90192517D01*
X199293796Y-90057669D01*
X199293795Y-90057668D01*
X199293793Y-90057664D01*
X199207547Y-89942455D01*
X199207544Y-89942452D01*
X199092335Y-89856206D01*
X199092328Y-89856202D01*
X198957482Y-89805908D01*
X198957483Y-89805908D01*
X198897883Y-89799501D01*
X198897881Y-89799500D01*
X198897873Y-89799500D01*
X198897864Y-89799500D01*
X197102129Y-89799500D01*
X197102123Y-89799501D01*
X197042516Y-89805908D01*
X196907671Y-89856202D01*
X196907664Y-89856206D01*
X196792455Y-89942452D01*
X196792452Y-89942455D01*
X196706206Y-90057664D01*
X196706202Y-90057671D01*
X196655908Y-90192517D01*
X196649501Y-90252116D01*
X196649501Y-90252123D01*
X196649500Y-90252135D01*
X124000500Y-90252135D01*
X124000500Y-85124500D01*
X124020185Y-85057461D01*
X124072989Y-85011706D01*
X124124500Y-85000500D01*
X202875500Y-85000500D01*
X202942539Y-85020185D01*
G37*
%TD.AperFunction*%
%TD*%
D15*
%TO.C,C2*%
X143000000Y-123765000D03*
D16*
X143000000Y-121225000D03*
%TD*%
D15*
%TO.C,C3*%
X149500000Y-123765000D03*
D16*
X149500000Y-121225000D03*
%TD*%
D15*
%TO.C,J1*%
X130000000Y-94500000D03*
D16*
X130000000Y-91960000D03*
%TD*%
D15*
%TO.C,J2*%
X198000000Y-103850000D03*
X198000000Y-101310000D03*
X198000000Y-98770000D03*
X198000000Y-96230000D03*
X198000000Y-93690000D03*
D16*
X198000000Y-91150000D03*
%TD*%
D15*
%TO.C,C1*%
X136500000Y-122765000D03*
D16*
X136500000Y-120225000D03*
%TD*%
D11*
%TO.P,C2,2*%
%TO.N,GND*%
X143000000Y-123765000D03*
D12*
%TO.P,C2,1*%
%TO.N,Net-(5V_MAIN1-Pad2)*%
X143000000Y-121225000D03*
%TD*%
D17*
%TO.P,U3,1,PE2*%
%TO.N,unconnected-(U3-PE2-Pad1)*%
X157825000Y-96500000D03*
%TO.P,U3,2,PE3*%
%TO.N,unconnected-(U3-PE3-Pad2)*%
X157825000Y-97000000D03*
%TO.P,U3,3,PE4*%
%TO.N,unconnected-(U3-PE4-Pad3)*%
X157825000Y-97500000D03*
%TO.P,U3,4,PE5*%
%TO.N,unconnected-(U3-PE5-Pad4)*%
X157825000Y-98000000D03*
%TO.P,U3,5,PE6*%
%TO.N,unconnected-(U3-PE6-Pad5)*%
X157825000Y-98500000D03*
%TO.P,U3,6,VBAT*%
%TO.N,3V3_DIGITAL*%
X157825000Y-99000000D03*
%TO.P,U3,7,PC13*%
%TO.N,unconnected-(U3-PC13-Pad7)*%
X157825000Y-99500000D03*
%TO.P,U3,8,PC14*%
%TO.N,unconnected-(U3-PC14-Pad8)*%
X157825000Y-100000000D03*
%TO.P,U3,9,PC15*%
%TO.N,unconnected-(U3-PC15-Pad9)*%
X157825000Y-100500000D03*
%TO.P,U3,10,VSS*%
%TO.N,GND*%
X157825000Y-101000000D03*
%TO.P,U3,11,VDD*%
%TO.N,unconnected-(U3-VDD-Pad11)*%
X157825000Y-101500000D03*
%TO.P,U3,12,PH0*%
%TO.N,unconnected-(U3-PH0-Pad12)*%
X157825000Y-102000000D03*
%TO.P,U3,13,PH1*%
%TO.N,unconnected-(U3-PH1-Pad13)*%
X157825000Y-102500000D03*
%TO.P,U3,14,NRST*%
%TO.N,Net-(J2-Pin_3)*%
X157825000Y-103000000D03*
%TO.P,U3,15,PC0*%
%TO.N,unconnected-(U3-PC0-Pad15)*%
X157825000Y-103500000D03*
%TO.P,U3,16,PC1*%
%TO.N,unconnected-(U3-PC1-Pad16)*%
X157825000Y-104000000D03*
%TO.P,U3,17,PC2_C*%
%TO.N,unconnected-(U3-PC2_C-Pad17)*%
X157825000Y-104500000D03*
%TO.P,U3,18,PC3_C*%
%TO.N,unconnected-(U3-PC3_C-Pad18)*%
X157825000Y-105000000D03*
%TO.P,U3,19,VSSA*%
%TO.N,GND*%
X157825000Y-105500000D03*
%TO.P,U3,20,VREF+*%
%TO.N,unconnected-(U3-VREF+-Pad20)*%
X157825000Y-106000000D03*
%TO.P,U3,21,VDDA*%
%TO.N,3V3_ANALOG*%
X157825000Y-106500000D03*
%TO.P,U3,22,PA0*%
%TO.N,unconnected-(U3-PA0-Pad22)*%
X157825000Y-107000000D03*
%TO.P,U3,23,PA1*%
%TO.N,unconnected-(U3-PA1-Pad23)*%
X157825000Y-107500000D03*
%TO.P,U3,24,PA2*%
%TO.N,unconnected-(U3-PA2-Pad24)*%
X157825000Y-108000000D03*
%TO.P,U3,25,PA3*%
%TO.N,unconnected-(U3-PA3-Pad25)*%
X157825000Y-108500000D03*
D18*
%TO.P,U3,26,VSS*%
%TO.N,GND*%
X159500000Y-110175000D03*
%TO.P,U3,27,VDD*%
%TO.N,unconnected-(U3-VDD-Pad27)*%
X160000000Y-110175000D03*
%TO.P,U3,28,PA4*%
%TO.N,unconnected-(U3-PA4-Pad28)*%
X160500000Y-110175000D03*
%TO.P,U3,29,PA5*%
%TO.N,unconnected-(U3-PA5-Pad29)*%
X161000000Y-110175000D03*
%TO.P,U3,30,PA6*%
%TO.N,unconnected-(U3-PA6-Pad30)*%
X161500000Y-110175000D03*
%TO.P,U3,31,PA7*%
%TO.N,unconnected-(U3-PA7-Pad31)*%
X162000000Y-110175000D03*
%TO.P,U3,32,PC4*%
%TO.N,unconnected-(U3-PC4-Pad32)*%
X162500000Y-110175000D03*
%TO.P,U3,33,PC5*%
%TO.N,unconnected-(U3-PC5-Pad33)*%
X163000000Y-110175000D03*
%TO.P,U3,34,PB0*%
%TO.N,unconnected-(U3-PB0-Pad34)*%
X163500000Y-110175000D03*
%TO.P,U3,35,PB1*%
%TO.N,unconnected-(U3-PB1-Pad35)*%
X164000000Y-110175000D03*
%TO.P,U3,36,PB2*%
%TO.N,unconnected-(U3-PB2-Pad36)*%
X164500000Y-110175000D03*
%TO.P,U3,37,PE7*%
%TO.N,unconnected-(U3-PE7-Pad37)*%
X165000000Y-110175000D03*
%TO.P,U3,38,PE8*%
%TO.N,unconnected-(U3-PE8-Pad38)*%
X165500000Y-110175000D03*
%TO.P,U3,39,PE9*%
%TO.N,unconnected-(U3-PE9-Pad39)*%
X166000000Y-110175000D03*
%TO.P,U3,40,PE10*%
%TO.N,unconnected-(U3-PE10-Pad40)*%
X166500000Y-110175000D03*
%TO.P,U3,41,PE11*%
%TO.N,unconnected-(U3-PE11-Pad41)*%
X167000000Y-110175000D03*
%TO.P,U3,42,PE12*%
%TO.N,unconnected-(U3-PE12-Pad42)*%
X167500000Y-110175000D03*
%TO.P,U3,43,PE13*%
%TO.N,unconnected-(U3-PE13-Pad43)*%
X168000000Y-110175000D03*
%TO.P,U3,44,PE14*%
%TO.N,unconnected-(U3-PE14-Pad44)*%
X168500000Y-110175000D03*
%TO.P,U3,45,PE15*%
%TO.N,unconnected-(U3-PE15-Pad45)*%
X169000000Y-110175000D03*
%TO.P,U3,46,PB10*%
%TO.N,unconnected-(U3-PB10-Pad46)*%
X169500000Y-110175000D03*
%TO.P,U3,47,PB11*%
%TO.N,unconnected-(U3-PB11-Pad47)*%
X170000000Y-110175000D03*
%TO.P,U3,48,VCAP*%
%TO.N,unconnected-(U3-VCAP-Pad48)*%
X170500000Y-110175000D03*
%TO.P,U3,49,VSS*%
%TO.N,GND*%
X171000000Y-110175000D03*
%TO.P,U3,50,VDD*%
%TO.N,unconnected-(U3-VDD-Pad50)*%
X171500000Y-110175000D03*
D17*
%TO.P,U3,51,PB12*%
%TO.N,unconnected-(U3-PB12-Pad51)*%
X173175000Y-108500000D03*
%TO.P,U3,52,PB13*%
%TO.N,unconnected-(U3-PB13-Pad52)*%
X173175000Y-108000000D03*
%TO.P,U3,53,PB14*%
%TO.N,unconnected-(U3-PB14-Pad53)*%
X173175000Y-107500000D03*
%TO.P,U3,54,PB15*%
%TO.N,unconnected-(U3-PB15-Pad54)*%
X173175000Y-107000000D03*
%TO.P,U3,55,PD8*%
%TO.N,unconnected-(U3-PD8-Pad55)*%
X173175000Y-106500000D03*
%TO.P,U3,56,PD9*%
%TO.N,unconnected-(U3-PD9-Pad56)*%
X173175000Y-106000000D03*
%TO.P,U3,57,PD10*%
%TO.N,unconnected-(U3-PD10-Pad57)*%
X173175000Y-105500000D03*
%TO.P,U3,58,PD11*%
%TO.N,unconnected-(U3-PD11-Pad58)*%
X173175000Y-105000000D03*
%TO.P,U3,59,PD12*%
%TO.N,unconnected-(U3-PD12-Pad59)*%
X173175000Y-104500000D03*
%TO.P,U3,60,PD13*%
%TO.N,unconnected-(U3-PD13-Pad60)*%
X173175000Y-104000000D03*
%TO.P,U3,61,PD14*%
%TO.N,unconnected-(U3-PD14-Pad61)*%
X173175000Y-103500000D03*
%TO.P,U3,62,PD15*%
%TO.N,unconnected-(U3-PD15-Pad62)*%
X173175000Y-103000000D03*
%TO.P,U3,63,PC6*%
%TO.N,unconnected-(U3-PC6-Pad63)*%
X173175000Y-102500000D03*
%TO.P,U3,64,PC7*%
%TO.N,unconnected-(U3-PC7-Pad64)*%
X173175000Y-102000000D03*
%TO.P,U3,65,PC8*%
%TO.N,unconnected-(U3-PC8-Pad65)*%
X173175000Y-101500000D03*
%TO.P,U3,66,PC9*%
%TO.N,unconnected-(U3-PC9-Pad66)*%
X173175000Y-101000000D03*
%TO.P,U3,67,PA8*%
%TO.N,unconnected-(U3-PA8-Pad67)*%
X173175000Y-100500000D03*
%TO.P,U3,68,PA9*%
%TO.N,unconnected-(U3-PA9-Pad68)*%
X173175000Y-100000000D03*
%TO.P,U3,69,PA10*%
%TO.N,unconnected-(U3-PA10-Pad69)*%
X173175000Y-99500000D03*
%TO.P,U3,70,PA11*%
%TO.N,unconnected-(U3-PA11-Pad70)*%
X173175000Y-99000000D03*
%TO.P,U3,71,PA12*%
%TO.N,unconnected-(U3-PA12-Pad71)*%
X173175000Y-98500000D03*
%TO.P,U3,72,PA13*%
%TO.N,/SWDIO*%
X173175000Y-98000000D03*
%TO.P,U3,73,VCAP*%
%TO.N,unconnected-(U3-VCAP-Pad73)*%
X173175000Y-97500000D03*
%TO.P,U3,74,VSS*%
%TO.N,GND*%
X173175000Y-97000000D03*
%TO.P,U3,75,VDD*%
%TO.N,unconnected-(U3-VDD-Pad75)*%
X173175000Y-96500000D03*
D18*
%TO.P,U3,76,PA14*%
%TO.N,/SWCLK*%
X171500000Y-94825000D03*
%TO.P,U3,77,PA15*%
%TO.N,unconnected-(U3-PA15-Pad77)*%
X171000000Y-94825000D03*
%TO.P,U3,78,PC10*%
%TO.N,unconnected-(U3-PC10-Pad78)*%
X170500000Y-94825000D03*
%TO.P,U3,79,PC11*%
%TO.N,unconnected-(U3-PC11-Pad79)*%
X170000000Y-94825000D03*
%TO.P,U3,80,PC12*%
%TO.N,unconnected-(U3-PC12-Pad80)*%
X169500000Y-94825000D03*
%TO.P,U3,81,PD0*%
%TO.N,unconnected-(U3-PD0-Pad81)*%
X169000000Y-94825000D03*
%TO.P,U3,82,PD1*%
%TO.N,unconnected-(U3-PD1-Pad82)*%
X168500000Y-94825000D03*
%TO.P,U3,83,PD2*%
%TO.N,unconnected-(U3-PD2-Pad83)*%
X168000000Y-94825000D03*
%TO.P,U3,84,PD3*%
%TO.N,unconnected-(U3-PD3-Pad84)*%
X167500000Y-94825000D03*
%TO.P,U3,85,PD4*%
%TO.N,unconnected-(U3-PD4-Pad85)*%
X167000000Y-94825000D03*
%TO.P,U3,86,PD5*%
%TO.N,unconnected-(U3-PD5-Pad86)*%
X166500000Y-94825000D03*
%TO.P,U3,87,PD6*%
%TO.N,unconnected-(U3-PD6-Pad87)*%
X166000000Y-94825000D03*
%TO.P,U3,88,PD7*%
%TO.N,unconnected-(U3-PD7-Pad88)*%
X165500000Y-94825000D03*
%TO.P,U3,89,PB3*%
%TO.N,unconnected-(U3-PB3-Pad89)*%
X165000000Y-94825000D03*
%TO.P,U3,90,PB4*%
%TO.N,unconnected-(U3-PB4-Pad90)*%
X164500000Y-94825000D03*
%TO.P,U3,91,PB5*%
%TO.N,unconnected-(U3-PB5-Pad91)*%
X164000000Y-94825000D03*
%TO.P,U3,92,PB6*%
%TO.N,unconnected-(U3-PB6-Pad92)*%
X163500000Y-94825000D03*
%TO.P,U3,93,PB7*%
%TO.N,unconnected-(U3-PB7-Pad93)*%
X163000000Y-94825000D03*
%TO.P,U3,94,BOOT0*%
%TO.N,Net-(U3-BOOT0)*%
X162500000Y-94825000D03*
%TO.P,U3,95,PB8*%
%TO.N,unconnected-(U3-PB8-Pad95)*%
X162000000Y-94825000D03*
%TO.P,U3,96,PB9*%
%TO.N,unconnected-(U3-PB9-Pad96)*%
X161500000Y-94825000D03*
%TO.P,U3,97,PE0*%
%TO.N,unconnected-(U3-PE0-Pad97)*%
X161000000Y-94825000D03*
%TO.P,U3,98,PE1*%
%TO.N,unconnected-(U3-PE1-Pad98)*%
X160500000Y-94825000D03*
%TO.P,U3,99,VSS*%
%TO.N,GND*%
X160000000Y-94825000D03*
%TO.P,U3,100,VDD*%
%TO.N,unconnected-(U3-VDD-Pad100)*%
X159500000Y-94825000D03*
%TD*%
D11*
%TO.P,C3,2*%
%TO.N,GND*%
X149500000Y-123765000D03*
D12*
%TO.P,C3,1*%
%TO.N,3V3_ANALOG*%
X149500000Y-121225000D03*
%TD*%
D11*
%TO.P,J1,2,Pin_2*%
%TO.N,GND*%
X130000000Y-94500000D03*
D12*
%TO.P,J1,1,Pin_1*%
%TO.N,3V3_DIGITAL*%
X130000000Y-91960000D03*
%TD*%
D11*
%TO.P,J2,6,Pin_6*%
%TO.N,unconnected-(J2-Pin_6-Pad6)*%
X198000000Y-103850000D03*
%TO.P,J2,5,Pin_5*%
%TO.N,unconnected-(J2-Pin_5-Pad5)*%
X198000000Y-101310000D03*
%TO.P,J2,4,Pin_4*%
%TO.N,GND*%
X198000000Y-98770000D03*
%TO.P,J2,3,Pin_3*%
%TO.N,Net-(J2-Pin_3)*%
X198000000Y-96230000D03*
%TO.P,J2,2,Pin_2*%
%TO.N,/SWCLK*%
X198000000Y-93690000D03*
D12*
%TO.P,J2,1,Pin_1*%
%TO.N,/SWDIO*%
X198000000Y-91150000D03*
%TD*%
D19*
%TO.P,R_BOOT1,2*%
%TO.N,GND*%
X145500000Y-106500000D03*
%TO.P,R_BOOT1,1*%
%TO.N,Net-(U3-BOOT0)*%
X143850000Y-106500000D03*
%TD*%
%TO.P,R_RST1,2*%
%TO.N,unconnected-(R_RST1-Pad2)*%
X146150000Y-114500000D03*
%TO.P,R_RST1,1*%
%TO.N,Net-(J2-Pin_3)*%
X144500000Y-114500000D03*
%TD*%
%TO.P,R1,2*%
%TO.N,unconnected-(R1-Pad2)*%
X145500000Y-100000000D03*
%TO.P,R1,1*%
%TO.N,3V3_DIGITAL*%
X143850000Y-100000000D03*
%TD*%
D20*
%TO.P,U2,1,VIN*%
%TO.N,3V3_DIGITAL*%
X161350000Y-130600000D03*
%TO.P,U2,2,OUT*%
%TO.N,Net-(D1-A)*%
X161350000Y-132300000D03*
%TO.P,U2,3,GND*%
%TO.N,GND*%
X161350000Y-134000000D03*
D21*
X170500000Y-134000000D03*
D20*
%TO.P,U2,4,FB*%
%TO.N,unconnected-(U2-FB-Pad4)*%
X161350000Y-135700000D03*
%TO.P,U2,5,~{ON}/OFF*%
%TO.N,unconnected-(U2-~{ON}{slash}OFF-Pad5)*%
X161350000Y-137400000D03*
%TD*%
D22*
%TO.P,SW1,2,2*%
%TO.N,unconnected-(SW1-Pad2)*%
X198150000Y-136400000D03*
X191850000Y-136400000D03*
%TO.P,SW1,1,1*%
%TO.N,GND*%
X198150000Y-132600000D03*
X191850000Y-132600000D03*
%TD*%
D13*
%TO.P,U1,9,EP*%
%TO.N,unconnected-(U1-EP-Pad9)*%
X185212500Y-114250000D03*
X185212500Y-113250000D03*
D14*
X184862500Y-113750000D03*
D13*
X184512500Y-114250000D03*
X184512500Y-113250000D03*
D23*
%TO.P,U1,8,~{FAULT}*%
%TO.N,unconnected-(U1-~{FAULT}-Pad8)*%
X186000000Y-113000000D03*
%TO.P,U1,7,~{SHDN}*%
%TO.N,unconnected-(U1-~{SHDN}-Pad7)*%
X186000000Y-113500000D03*
%TO.P,U1,6,CC*%
%TO.N,unconnected-(U1-CC-Pad6)*%
X186000000Y-114000000D03*
%TO.P,U1,5,NC*%
%TO.N,unconnected-(U1-NC-Pad5)*%
X186000000Y-114500000D03*
%TO.P,U1,4,OUT*%
%TO.N,/3V3*%
X183725000Y-114500000D03*
%TO.P,U1,3,GND*%
%TO.N,GND*%
X183725000Y-114000000D03*
%TO.P,U1,2,IN*%
%TO.N,3V3_DIGITAL*%
X183725000Y-113500000D03*
%TO.P,U1,1,OUT*%
%TO.N,/3V3*%
X183725000Y-113000000D03*
%TD*%
D24*
%TO.P,5V_MAIN1,2,2*%
%TO.N,Net-(5V_MAIN1-Pad2)*%
X163500000Y-114750000D03*
%TO.P,5V_MAIN1,1,1*%
%TO.N,Net-(D1-A)*%
X161200000Y-114750000D03*
%TD*%
D11*
%TO.P,C1,2*%
%TO.N,unconnected-(C1-Pad2)*%
X136500000Y-122765000D03*
D12*
%TO.P,C1,1*%
%TO.N,3V3_DIGITAL*%
X136500000Y-120225000D03*
%TD*%
D25*
%TO.P,D1,1,K*%
%TO.N,GND*%
X150850000Y-114500000D03*
%TO.P,D1,2,A*%
%TO.N,Net-(D1-A)*%
X154150000Y-114500000D03*
%TD*%
D26*
%TO.N,/SWCLK*%
X171550000Y-94825000D02*
X171550000Y-95000000D01*
X171500000Y-94825000D02*
X171550000Y-94825000D01*
%TO.N,Net-(J2-Pin_3)*%
X193323000Y-93323000D02*
X196500000Y-96500000D01*
X159049000Y-93942176D02*
X159668176Y-93323000D01*
X159668176Y-93323000D02*
X193323000Y-93323000D01*
X159049000Y-99950000D02*
X159049000Y-93942176D01*
X162099000Y-103000000D02*
X159049000Y-99950000D01*
X157825000Y-103000000D02*
X162099000Y-103000000D01*
%TO.N,/SWDIO*%
X199151000Y-92301000D02*
X198000000Y-91150000D01*
X197523240Y-99921000D02*
X198476760Y-99921000D01*
X195602240Y-98000000D02*
X197523240Y-99921000D01*
X198476760Y-99921000D02*
X199151000Y-99246760D01*
X173175000Y-98000000D02*
X195602240Y-98000000D01*
X199151000Y-99246760D02*
X199151000Y-92301000D01*
%TO.N,GND*%
X192954000Y-93724000D02*
X198000000Y-98770000D01*
X160267176Y-93724000D02*
X192954000Y-93724000D01*
X160049000Y-93942176D02*
X160267176Y-93724000D01*
X160049000Y-98049000D02*
X160049000Y-93942176D01*
X171951000Y-93942176D02*
X171732824Y-93724000D01*
X171732824Y-93724000D02*
X160267176Y-93724000D01*
X171951000Y-96274924D02*
X171951000Y-93942176D01*
X159000000Y-109225924D02*
X171951000Y-96274924D01*
X159000000Y-120500000D02*
X159000000Y-109225924D01*
X161750000Y-123250000D02*
X159000000Y-120500000D01*
X171000000Y-112849000D02*
X170000000Y-113849000D01*
X171000000Y-110175000D02*
X171000000Y-112849000D01*
X170000000Y-113849000D02*
X170349000Y-113849000D01*
X185724000Y-111276000D02*
X194000000Y-103000000D01*
X165562840Y-111276000D02*
X185724000Y-111276000D01*
X162674000Y-114164840D02*
X165562840Y-111276000D01*
X162674000Y-122326000D02*
X161750000Y-123250000D01*
X170349000Y-113849000D02*
X189100000Y-132600000D01*
X189100000Y-132600000D02*
X191850000Y-132600000D01*
X162989840Y-113849000D02*
X170000000Y-113849000D01*
X161750000Y-123250000D02*
X161633605Y-123366395D01*
X162674000Y-114164840D02*
X162674000Y-122326000D01*
X164010160Y-113849000D02*
X162989840Y-113849000D01*
X162989840Y-113849000D02*
X162674000Y-114164840D01*
X164161160Y-114000000D02*
X164010160Y-113849000D01*
X183725000Y-114000000D02*
X164161160Y-114000000D01*
%TO.N,3V3_ANALOG*%
X149500000Y-115500000D02*
X150099000Y-114901000D01*
X149500000Y-121225000D02*
X149500000Y-115500000D01*
%TO.N,Net-(5V_MAIN1-Pad2)*%
X163951000Y-115201000D02*
X163500000Y-114750000D01*
X163951000Y-134535160D02*
X163951000Y-115201000D01*
X163636160Y-134850000D02*
X163951000Y-134535160D01*
X156625000Y-134850000D02*
X163636160Y-134850000D01*
X143000000Y-121225000D02*
X156625000Y-134850000D01*
%TO.N,3V3_DIGITAL*%
X161350000Y-123649890D02*
X148224110Y-110524000D01*
X161350000Y-130600000D02*
X161350000Y-123649890D01*
X148224110Y-110524000D02*
X147335200Y-110524000D01*
%TO.N,GND*%
X159050000Y-134000000D02*
X161350000Y-134000000D01*
X150850000Y-125800000D02*
X159050000Y-134000000D01*
X150850000Y-122415000D02*
X150850000Y-125800000D01*
X150850000Y-122415000D02*
X149500000Y-123765000D01*
X150850000Y-114500000D02*
X150850000Y-122415000D01*
X147423000Y-114500000D02*
X150850000Y-114500000D01*
X138007000Y-123916000D02*
X147423000Y-114500000D01*
X136023240Y-123916000D02*
X138007000Y-123916000D01*
X134948000Y-122840760D02*
X136023240Y-123916000D01*
X134948000Y-114212936D02*
X134948000Y-122840760D01*
X143436936Y-105724000D02*
X134948000Y-114212936D01*
X144263064Y-105724000D02*
X143436936Y-105724000D01*
X145500000Y-106960936D02*
X144263064Y-105724000D01*
X145500000Y-110657900D02*
X145500000Y-106960936D01*
X142150000Y-124615000D02*
X143000000Y-123765000D01*
X134948000Y-122840760D02*
X136722240Y-124615000D01*
X136722240Y-124615000D02*
X142150000Y-124615000D01*
X145500000Y-106500000D02*
X145500000Y-110657900D01*
X145500000Y-106500000D02*
X145800000Y-106800000D01*
%TO.N,Net-(U3-BOOT0)*%
X162500000Y-105158824D02*
X162500000Y-94825000D01*
X148341100Y-108951000D02*
X158707824Y-108951000D01*
X135349000Y-121376000D02*
X137651000Y-121376000D01*
X137651000Y-119641100D02*
X148341100Y-108951000D01*
X135349000Y-115001000D02*
X135349000Y-121376000D01*
X158707824Y-108951000D02*
X162500000Y-105158824D01*
X143850000Y-106500000D02*
X135349000Y-115001000D01*
X137651000Y-121376000D02*
X137651000Y-119641100D01*
%TO.N,3V3_DIGITAL*%
X149552000Y-99000000D02*
X157825000Y-99000000D01*
X146201000Y-102351000D02*
X149552000Y-99000000D01*
X146201000Y-102351000D02*
X143850000Y-100000000D01*
X146201000Y-110524000D02*
X146201000Y-102351000D01*
X136500000Y-120225000D02*
X146201000Y-110524000D01*
%TO.N,GND*%
X133500000Y-94500000D02*
X145500000Y-106500000D01*
X130000000Y-94500000D02*
X133500000Y-94500000D01*
%TO.N,3V3_DIGITAL*%
X135810000Y-91960000D02*
X143850000Y-100000000D01*
X130000000Y-91960000D02*
X135810000Y-91960000D01*
%TD*%
D15*
%TO.C,C2*%
X143000000Y-123765000D03*
D16*
X143000000Y-121225000D03*
%TD*%
D27*
%TO.C,U3*%
X157825000Y-96500000D03*
X157825000Y-97000000D03*
X157825000Y-97500000D03*
X157825000Y-98000000D03*
X157825000Y-98500000D03*
X157825000Y-99000000D03*
X157825000Y-99500000D03*
X157825000Y-100000000D03*
X157825000Y-100500000D03*
X157825000Y-101000000D03*
X157825000Y-101500000D03*
X157825000Y-102000000D03*
X157825000Y-102500000D03*
X157825000Y-103000000D03*
X157825000Y-103500000D03*
X157825000Y-104000000D03*
X157825000Y-104500000D03*
X157825000Y-105000000D03*
X157825000Y-105500000D03*
X157825000Y-106000000D03*
X157825000Y-106500000D03*
X157825000Y-107000000D03*
X157825000Y-107500000D03*
X157825000Y-108000000D03*
X157825000Y-108500000D03*
D28*
X159500000Y-110175000D03*
X160000000Y-110175000D03*
X160500000Y-110175000D03*
X161000000Y-110175000D03*
X161500000Y-110175000D03*
X162000000Y-110175000D03*
X162500000Y-110175000D03*
X163000000Y-110175000D03*
X163500000Y-110175000D03*
X164000000Y-110175000D03*
X164500000Y-110175000D03*
X165000000Y-110175000D03*
X165500000Y-110175000D03*
X166000000Y-110175000D03*
X166500000Y-110175000D03*
X167000000Y-110175000D03*
X167500000Y-110175000D03*
X168000000Y-110175000D03*
X168500000Y-110175000D03*
X169000000Y-110175000D03*
X169500000Y-110175000D03*
X170000000Y-110175000D03*
X170500000Y-110175000D03*
X171000000Y-110175000D03*
X171500000Y-110175000D03*
D27*
X173175000Y-108500000D03*
X173175000Y-108000000D03*
X173175000Y-107500000D03*
X173175000Y-107000000D03*
X173175000Y-106500000D03*
X173175000Y-106000000D03*
X173175000Y-105500000D03*
X173175000Y-105000000D03*
X173175000Y-104500000D03*
X173175000Y-104000000D03*
X173175000Y-103500000D03*
X173175000Y-103000000D03*
X173175000Y-102500000D03*
X173175000Y-102000000D03*
X173175000Y-101500000D03*
X173175000Y-101000000D03*
X173175000Y-100500000D03*
X173175000Y-100000000D03*
X173175000Y-99500000D03*
X173175000Y-99000000D03*
X173175000Y-98500000D03*
X173175000Y-98000000D03*
X173175000Y-97500000D03*
X173175000Y-97000000D03*
X173175000Y-96500000D03*
D28*
X171500000Y-94825000D03*
X171000000Y-94825000D03*
X170500000Y-94825000D03*
X170000000Y-94825000D03*
X169500000Y-94825000D03*
X169000000Y-94825000D03*
X168500000Y-94825000D03*
X168000000Y-94825000D03*
X167500000Y-94825000D03*
X167000000Y-94825000D03*
X166500000Y-94825000D03*
X166000000Y-94825000D03*
X165500000Y-94825000D03*
X165000000Y-94825000D03*
X164500000Y-94825000D03*
X164000000Y-94825000D03*
X163500000Y-94825000D03*
X163000000Y-94825000D03*
X162500000Y-94825000D03*
X162000000Y-94825000D03*
X161500000Y-94825000D03*
X161000000Y-94825000D03*
X160500000Y-94825000D03*
X160000000Y-94825000D03*
X159500000Y-94825000D03*
%TD*%
D15*
%TO.C,C3*%
X149500000Y-123765000D03*
D16*
X149500000Y-121225000D03*
%TD*%
D15*
%TO.C,J1*%
X130000000Y-94500000D03*
D16*
X130000000Y-91960000D03*
%TD*%
D15*
%TO.C,J2*%
X198000000Y-103850000D03*
X198000000Y-101310000D03*
X198000000Y-98770000D03*
X198000000Y-96230000D03*
X198000000Y-93690000D03*
D16*
X198000000Y-91150000D03*
%TD*%
D29*
%TO.C,R_BOOT1*%
X145500000Y-106500000D03*
X143850000Y-106500000D03*
%TD*%
%TO.C,R_RST1*%
X146150000Y-114500000D03*
X144500000Y-114500000D03*
%TD*%
%TO.C,R1*%
X145500000Y-100000000D03*
X143850000Y-100000000D03*
%TD*%
D30*
%TO.C,U2*%
X161350000Y-130600000D03*
X161350000Y-132300000D03*
X161350000Y-134000000D03*
D31*
X170500000Y-134000000D03*
D30*
X161350000Y-135700000D03*
X161350000Y-137400000D03*
%TD*%
D32*
%TO.C,SW1*%
X198150000Y-136400000D03*
X191850000Y-136400000D03*
X198150000Y-132600000D03*
X191850000Y-132600000D03*
%TD*%
D33*
%TO.C,U1*%
X184862500Y-113750000D03*
D34*
X186000000Y-113000000D03*
X186000000Y-113500000D03*
X186000000Y-114000000D03*
X186000000Y-114500000D03*
X183725000Y-114500000D03*
X183725000Y-114000000D03*
X183725000Y-113500000D03*
X183725000Y-113000000D03*
%TD*%
D35*
%TO.C,5V_MAIN1*%
X163500000Y-114750000D03*
X161200000Y-114750000D03*
%TD*%
D15*
%TO.C,C1*%
X136500000Y-122765000D03*
D16*
X136500000Y-120225000D03*
%TD*%
D36*
%TO.C,D1*%
X150850000Y-114500000D03*
X154150000Y-114500000D03*
%TD*%
D27*
%TO.C,U3*%
X157825000Y-96500000D03*
X157825000Y-97000000D03*
X157825000Y-97500000D03*
X157825000Y-98000000D03*
X157825000Y-98500000D03*
X157825000Y-99000000D03*
X157825000Y-99500000D03*
X157825000Y-100000000D03*
X157825000Y-100500000D03*
X157825000Y-101000000D03*
X157825000Y-101500000D03*
X157825000Y-102000000D03*
X157825000Y-102500000D03*
X157825000Y-103000000D03*
X157825000Y-103500000D03*
X157825000Y-104000000D03*
X157825000Y-104500000D03*
X157825000Y-105000000D03*
X157825000Y-105500000D03*
X157825000Y-106000000D03*
X157825000Y-106500000D03*
X157825000Y-107000000D03*
X157825000Y-107500000D03*
X157825000Y-108000000D03*
X157825000Y-108500000D03*
D28*
X159500000Y-110175000D03*
X160000000Y-110175000D03*
X160500000Y-110175000D03*
X161000000Y-110175000D03*
X161500000Y-110175000D03*
X162000000Y-110175000D03*
X162500000Y-110175000D03*
X163000000Y-110175000D03*
X163500000Y-110175000D03*
X164000000Y-110175000D03*
X164500000Y-110175000D03*
X165000000Y-110175000D03*
X165500000Y-110175000D03*
X166000000Y-110175000D03*
X166500000Y-110175000D03*
X167000000Y-110175000D03*
X167500000Y-110175000D03*
X168000000Y-110175000D03*
X168500000Y-110175000D03*
X169000000Y-110175000D03*
X169500000Y-110175000D03*
X170000000Y-110175000D03*
X170500000Y-110175000D03*
X171000000Y-110175000D03*
X171500000Y-110175000D03*
D27*
X173175000Y-108500000D03*
X173175000Y-108000000D03*
X173175000Y-107500000D03*
X173175000Y-107000000D03*
X173175000Y-106500000D03*
X173175000Y-106000000D03*
X173175000Y-105500000D03*
X173175000Y-105000000D03*
X173175000Y-104500000D03*
X173175000Y-104000000D03*
X173175000Y-103500000D03*
X173175000Y-103000000D03*
X173175000Y-102500000D03*
X173175000Y-102000000D03*
X173175000Y-101500000D03*
X173175000Y-101000000D03*
X173175000Y-100500000D03*
X173175000Y-100000000D03*
X173175000Y-99500000D03*
X173175000Y-99000000D03*
X173175000Y-98500000D03*
X173175000Y-98000000D03*
X173175000Y-97500000D03*
X173175000Y-97000000D03*
X173175000Y-96500000D03*
D28*
X171500000Y-94825000D03*
X171000000Y-94825000D03*
X170500000Y-94825000D03*
X170000000Y-94825000D03*
X169500000Y-94825000D03*
X169000000Y-94825000D03*
X168500000Y-94825000D03*
X168000000Y-94825000D03*
X167500000Y-94825000D03*
X167000000Y-94825000D03*
X166500000Y-94825000D03*
X166000000Y-94825000D03*
X165500000Y-94825000D03*
X165000000Y-94825000D03*
X164500000Y-94825000D03*
X164000000Y-94825000D03*
X163500000Y-94825000D03*
X163000000Y-94825000D03*
X162500000Y-94825000D03*
X162000000Y-94825000D03*
X161500000Y-94825000D03*
X161000000Y-94825000D03*
X160500000Y-94825000D03*
X160000000Y-94825000D03*
X159500000Y-94825000D03*
%TD*%
D29*
%TO.C,R_BOOT1*%
X145500000Y-106500000D03*
X143850000Y-106500000D03*
%TD*%
%TO.C,R_RST1*%
X146150000Y-114500000D03*
X144500000Y-114500000D03*
%TD*%
%TO.C,R1*%
X145500000Y-100000000D03*
X143850000Y-100000000D03*
%TD*%
D37*
%TO.C,U2*%
X168075000Y-131225000D03*
X168075000Y-136775000D03*
X172925000Y-131225000D03*
X172925000Y-136775000D03*
D30*
X161350000Y-130600000D03*
X161350000Y-132300000D03*
X161350000Y-134000000D03*
X161350000Y-135700000D03*
X161350000Y-137400000D03*
%TD*%
D32*
%TO.C,SW1*%
X198150000Y-136400000D03*
X191850000Y-136400000D03*
X198150000Y-132600000D03*
X191850000Y-132600000D03*
%TD*%
D34*
%TO.C,U1*%
X186000000Y-113000000D03*
X186000000Y-113500000D03*
X186000000Y-114000000D03*
X186000000Y-114500000D03*
X183725000Y-114500000D03*
X183725000Y-114000000D03*
X183725000Y-113500000D03*
X183725000Y-113000000D03*
D38*
X185162500Y-114125000D03*
X185162500Y-113375000D03*
X184562500Y-114125000D03*
X184562500Y-113375000D03*
%TD*%
D35*
%TO.C,5V_MAIN1*%
X163500000Y-114750000D03*
X161200000Y-114750000D03*
%TD*%
D36*
%TO.C,D1*%
X150850000Y-114500000D03*
X154150000Y-114500000D03*
%TD*%
D39*
X142833333Y-119204580D02*
X142785714Y-119252200D01*
X142785714Y-119252200D02*
X142642857Y-119299819D01*
X142642857Y-119299819D02*
X142547619Y-119299819D01*
X142547619Y-119299819D02*
X142404762Y-119252200D01*
X142404762Y-119252200D02*
X142309524Y-119156961D01*
X142309524Y-119156961D02*
X142261905Y-119061723D01*
X142261905Y-119061723D02*
X142214286Y-118871247D01*
X142214286Y-118871247D02*
X142214286Y-118728390D01*
X142214286Y-118728390D02*
X142261905Y-118537914D01*
X142261905Y-118537914D02*
X142309524Y-118442676D01*
X142309524Y-118442676D02*
X142404762Y-118347438D01*
X142404762Y-118347438D02*
X142547619Y-118299819D01*
X142547619Y-118299819D02*
X142642857Y-118299819D01*
X142642857Y-118299819D02*
X142785714Y-118347438D01*
X142785714Y-118347438D02*
X142833333Y-118395057D01*
X143214286Y-118395057D02*
X143261905Y-118347438D01*
X143261905Y-118347438D02*
X143357143Y-118299819D01*
X143357143Y-118299819D02*
X143595238Y-118299819D01*
X143595238Y-118299819D02*
X143690476Y-118347438D01*
X143690476Y-118347438D02*
X143738095Y-118395057D01*
X143738095Y-118395057D02*
X143785714Y-118490295D01*
X143785714Y-118490295D02*
X143785714Y-118585533D01*
X143785714Y-118585533D02*
X143738095Y-118728390D01*
X143738095Y-118728390D02*
X143166667Y-119299819D01*
X143166667Y-119299819D02*
X143785714Y-119299819D01*
X164738095Y-90279819D02*
X164738095Y-91089342D01*
X164738095Y-91089342D02*
X164785714Y-91184580D01*
X164785714Y-91184580D02*
X164833333Y-91232200D01*
X164833333Y-91232200D02*
X164928571Y-91279819D01*
X164928571Y-91279819D02*
X165119047Y-91279819D01*
X165119047Y-91279819D02*
X165214285Y-91232200D01*
X165214285Y-91232200D02*
X165261904Y-91184580D01*
X165261904Y-91184580D02*
X165309523Y-91089342D01*
X165309523Y-91089342D02*
X165309523Y-90279819D01*
X165690476Y-90279819D02*
X166309523Y-90279819D01*
X166309523Y-90279819D02*
X165976190Y-90660771D01*
X165976190Y-90660771D02*
X166119047Y-90660771D01*
X166119047Y-90660771D02*
X166214285Y-90708390D01*
X166214285Y-90708390D02*
X166261904Y-90756009D01*
X166261904Y-90756009D02*
X166309523Y-90851247D01*
X166309523Y-90851247D02*
X166309523Y-91089342D01*
X166309523Y-91089342D02*
X166261904Y-91184580D01*
X166261904Y-91184580D02*
X166214285Y-91232200D01*
X166214285Y-91232200D02*
X166119047Y-91279819D01*
X166119047Y-91279819D02*
X165833333Y-91279819D01*
X165833333Y-91279819D02*
X165738095Y-91232200D01*
X165738095Y-91232200D02*
X165690476Y-91184580D01*
X149333333Y-119204580D02*
X149285714Y-119252200D01*
X149285714Y-119252200D02*
X149142857Y-119299819D01*
X149142857Y-119299819D02*
X149047619Y-119299819D01*
X149047619Y-119299819D02*
X148904762Y-119252200D01*
X148904762Y-119252200D02*
X148809524Y-119156961D01*
X148809524Y-119156961D02*
X148761905Y-119061723D01*
X148761905Y-119061723D02*
X148714286Y-118871247D01*
X148714286Y-118871247D02*
X148714286Y-118728390D01*
X148714286Y-118728390D02*
X148761905Y-118537914D01*
X148761905Y-118537914D02*
X148809524Y-118442676D01*
X148809524Y-118442676D02*
X148904762Y-118347438D01*
X148904762Y-118347438D02*
X149047619Y-118299819D01*
X149047619Y-118299819D02*
X149142857Y-118299819D01*
X149142857Y-118299819D02*
X149285714Y-118347438D01*
X149285714Y-118347438D02*
X149333333Y-118395057D01*
X149666667Y-118299819D02*
X150285714Y-118299819D01*
X150285714Y-118299819D02*
X149952381Y-118680771D01*
X149952381Y-118680771D02*
X150095238Y-118680771D01*
X150095238Y-118680771D02*
X150190476Y-118728390D01*
X150190476Y-118728390D02*
X150238095Y-118776009D01*
X150238095Y-118776009D02*
X150285714Y-118871247D01*
X150285714Y-118871247D02*
X150285714Y-119109342D01*
X150285714Y-119109342D02*
X150238095Y-119204580D01*
X150238095Y-119204580D02*
X150190476Y-119252200D01*
X150190476Y-119252200D02*
X150095238Y-119299819D01*
X150095238Y-119299819D02*
X149809524Y-119299819D01*
X149809524Y-119299819D02*
X149714286Y-119252200D01*
X149714286Y-119252200D02*
X149666667Y-119204580D01*
X129666666Y-89034819D02*
X129666666Y-89749104D01*
X129666666Y-89749104D02*
X129619047Y-89891961D01*
X129619047Y-89891961D02*
X129523809Y-89987200D01*
X129523809Y-89987200D02*
X129380952Y-90034819D01*
X129380952Y-90034819D02*
X129285714Y-90034819D01*
X130666666Y-90034819D02*
X130095238Y-90034819D01*
X130380952Y-90034819D02*
X130380952Y-89034819D01*
X130380952Y-89034819D02*
X130285714Y-89177676D01*
X130285714Y-89177676D02*
X130190476Y-89272914D01*
X130190476Y-89272914D02*
X130095238Y-89320533D01*
X197666666Y-88224819D02*
X197666666Y-88939104D01*
X197666666Y-88939104D02*
X197619047Y-89081961D01*
X197619047Y-89081961D02*
X197523809Y-89177200D01*
X197523809Y-89177200D02*
X197380952Y-89224819D01*
X197380952Y-89224819D02*
X197285714Y-89224819D01*
X198095238Y-88320057D02*
X198142857Y-88272438D01*
X198142857Y-88272438D02*
X198238095Y-88224819D01*
X198238095Y-88224819D02*
X198476190Y-88224819D01*
X198476190Y-88224819D02*
X198571428Y-88272438D01*
X198571428Y-88272438D02*
X198619047Y-88320057D01*
X198619047Y-88320057D02*
X198666666Y-88415295D01*
X198666666Y-88415295D02*
X198666666Y-88510533D01*
X198666666Y-88510533D02*
X198619047Y-88653390D01*
X198619047Y-88653390D02*
X198047619Y-89224819D01*
X198047619Y-89224819D02*
X198666666Y-89224819D01*
X142198809Y-105524819D02*
X141865476Y-105048628D01*
X141627381Y-105524819D02*
X141627381Y-104524819D01*
X141627381Y-104524819D02*
X142008333Y-104524819D01*
X142008333Y-104524819D02*
X142103571Y-104572438D01*
X142103571Y-104572438D02*
X142151190Y-104620057D01*
X142151190Y-104620057D02*
X142198809Y-104715295D01*
X142198809Y-104715295D02*
X142198809Y-104858152D01*
X142198809Y-104858152D02*
X142151190Y-104953390D01*
X142151190Y-104953390D02*
X142103571Y-105001009D01*
X142103571Y-105001009D02*
X142008333Y-105048628D01*
X142008333Y-105048628D02*
X141627381Y-105048628D01*
X142389286Y-105620057D02*
X143151190Y-105620057D01*
X143722619Y-105001009D02*
X143865476Y-105048628D01*
X143865476Y-105048628D02*
X143913095Y-105096247D01*
X143913095Y-105096247D02*
X143960714Y-105191485D01*
X143960714Y-105191485D02*
X143960714Y-105334342D01*
X143960714Y-105334342D02*
X143913095Y-105429580D01*
X143913095Y-105429580D02*
X143865476Y-105477200D01*
X143865476Y-105477200D02*
X143770238Y-105524819D01*
X143770238Y-105524819D02*
X143389286Y-105524819D01*
X143389286Y-105524819D02*
X143389286Y-104524819D01*
X143389286Y-104524819D02*
X143722619Y-104524819D01*
X143722619Y-104524819D02*
X143817857Y-104572438D01*
X143817857Y-104572438D02*
X143865476Y-104620057D01*
X143865476Y-104620057D02*
X143913095Y-104715295D01*
X143913095Y-104715295D02*
X143913095Y-104810533D01*
X143913095Y-104810533D02*
X143865476Y-104905771D01*
X143865476Y-104905771D02*
X143817857Y-104953390D01*
X143817857Y-104953390D02*
X143722619Y-105001009D01*
X143722619Y-105001009D02*
X143389286Y-105001009D01*
X144579762Y-104524819D02*
X144770238Y-104524819D01*
X144770238Y-104524819D02*
X144865476Y-104572438D01*
X144865476Y-104572438D02*
X144960714Y-104667676D01*
X144960714Y-104667676D02*
X145008333Y-104858152D01*
X145008333Y-104858152D02*
X145008333Y-105191485D01*
X145008333Y-105191485D02*
X144960714Y-105381961D01*
X144960714Y-105381961D02*
X144865476Y-105477200D01*
X144865476Y-105477200D02*
X144770238Y-105524819D01*
X144770238Y-105524819D02*
X144579762Y-105524819D01*
X144579762Y-105524819D02*
X144484524Y-105477200D01*
X144484524Y-105477200D02*
X144389286Y-105381961D01*
X144389286Y-105381961D02*
X144341667Y-105191485D01*
X144341667Y-105191485D02*
X144341667Y-104858152D01*
X144341667Y-104858152D02*
X144389286Y-104667676D01*
X144389286Y-104667676D02*
X144484524Y-104572438D01*
X144484524Y-104572438D02*
X144579762Y-104524819D01*
X145627381Y-104524819D02*
X145817857Y-104524819D01*
X145817857Y-104524819D02*
X145913095Y-104572438D01*
X145913095Y-104572438D02*
X146008333Y-104667676D01*
X146008333Y-104667676D02*
X146055952Y-104858152D01*
X146055952Y-104858152D02*
X146055952Y-105191485D01*
X146055952Y-105191485D02*
X146008333Y-105381961D01*
X146008333Y-105381961D02*
X145913095Y-105477200D01*
X145913095Y-105477200D02*
X145817857Y-105524819D01*
X145817857Y-105524819D02*
X145627381Y-105524819D01*
X145627381Y-105524819D02*
X145532143Y-105477200D01*
X145532143Y-105477200D02*
X145436905Y-105381961D01*
X145436905Y-105381961D02*
X145389286Y-105191485D01*
X145389286Y-105191485D02*
X145389286Y-104858152D01*
X145389286Y-104858152D02*
X145436905Y-104667676D01*
X145436905Y-104667676D02*
X145532143Y-104572438D01*
X145532143Y-104572438D02*
X145627381Y-104524819D01*
X146341667Y-104524819D02*
X146913095Y-104524819D01*
X146627381Y-105524819D02*
X146627381Y-104524819D01*
X147770238Y-105524819D02*
X147198810Y-105524819D01*
X147484524Y-105524819D02*
X147484524Y-104524819D01*
X147484524Y-104524819D02*
X147389286Y-104667676D01*
X147389286Y-104667676D02*
X147294048Y-104762914D01*
X147294048Y-104762914D02*
X147198810Y-104810533D01*
X142920237Y-112454819D02*
X142586904Y-111978628D01*
X142348809Y-112454819D02*
X142348809Y-111454819D01*
X142348809Y-111454819D02*
X142729761Y-111454819D01*
X142729761Y-111454819D02*
X142824999Y-111502438D01*
X142824999Y-111502438D02*
X142872618Y-111550057D01*
X142872618Y-111550057D02*
X142920237Y-111645295D01*
X142920237Y-111645295D02*
X142920237Y-111788152D01*
X142920237Y-111788152D02*
X142872618Y-111883390D01*
X142872618Y-111883390D02*
X142824999Y-111931009D01*
X142824999Y-111931009D02*
X142729761Y-111978628D01*
X142729761Y-111978628D02*
X142348809Y-111978628D01*
X143110714Y-112550057D02*
X143872618Y-112550057D01*
X144682142Y-112454819D02*
X144348809Y-111978628D01*
X144110714Y-112454819D02*
X144110714Y-111454819D01*
X144110714Y-111454819D02*
X144491666Y-111454819D01*
X144491666Y-111454819D02*
X144586904Y-111502438D01*
X144586904Y-111502438D02*
X144634523Y-111550057D01*
X144634523Y-111550057D02*
X144682142Y-111645295D01*
X144682142Y-111645295D02*
X144682142Y-111788152D01*
X144682142Y-111788152D02*
X144634523Y-111883390D01*
X144634523Y-111883390D02*
X144586904Y-111931009D01*
X144586904Y-111931009D02*
X144491666Y-111978628D01*
X144491666Y-111978628D02*
X144110714Y-111978628D01*
X145063095Y-112407200D02*
X145205952Y-112454819D01*
X145205952Y-112454819D02*
X145444047Y-112454819D01*
X145444047Y-112454819D02*
X145539285Y-112407200D01*
X145539285Y-112407200D02*
X145586904Y-112359580D01*
X145586904Y-112359580D02*
X145634523Y-112264342D01*
X145634523Y-112264342D02*
X145634523Y-112169104D01*
X145634523Y-112169104D02*
X145586904Y-112073866D01*
X145586904Y-112073866D02*
X145539285Y-112026247D01*
X145539285Y-112026247D02*
X145444047Y-111978628D01*
X145444047Y-111978628D02*
X145253571Y-111931009D01*
X145253571Y-111931009D02*
X145158333Y-111883390D01*
X145158333Y-111883390D02*
X145110714Y-111835771D01*
X145110714Y-111835771D02*
X145063095Y-111740533D01*
X145063095Y-111740533D02*
X145063095Y-111645295D01*
X145063095Y-111645295D02*
X145110714Y-111550057D01*
X145110714Y-111550057D02*
X145158333Y-111502438D01*
X145158333Y-111502438D02*
X145253571Y-111454819D01*
X145253571Y-111454819D02*
X145491666Y-111454819D01*
X145491666Y-111454819D02*
X145634523Y-111502438D01*
X145920238Y-111454819D02*
X146491666Y-111454819D01*
X146205952Y-112454819D02*
X146205952Y-111454819D01*
X147348809Y-112454819D02*
X146777381Y-112454819D01*
X147063095Y-112454819D02*
X147063095Y-111454819D01*
X147063095Y-111454819D02*
X146967857Y-111597676D01*
X146967857Y-111597676D02*
X146872619Y-111692914D01*
X146872619Y-111692914D02*
X146777381Y-111740533D01*
X144508333Y-99024819D02*
X144175000Y-98548628D01*
X143936905Y-99024819D02*
X143936905Y-98024819D01*
X143936905Y-98024819D02*
X144317857Y-98024819D01*
X144317857Y-98024819D02*
X144413095Y-98072438D01*
X144413095Y-98072438D02*
X144460714Y-98120057D01*
X144460714Y-98120057D02*
X144508333Y-98215295D01*
X144508333Y-98215295D02*
X144508333Y-98358152D01*
X144508333Y-98358152D02*
X144460714Y-98453390D01*
X144460714Y-98453390D02*
X144413095Y-98501009D01*
X144413095Y-98501009D02*
X144317857Y-98548628D01*
X144317857Y-98548628D02*
X143936905Y-98548628D01*
X145460714Y-99024819D02*
X144889286Y-99024819D01*
X145175000Y-99024819D02*
X145175000Y-98024819D01*
X145175000Y-98024819D02*
X145079762Y-98167676D01*
X145079762Y-98167676D02*
X144984524Y-98262914D01*
X144984524Y-98262914D02*
X144889286Y-98310533D01*
X166363095Y-126804819D02*
X166363095Y-127614342D01*
X166363095Y-127614342D02*
X166410714Y-127709580D01*
X166410714Y-127709580D02*
X166458333Y-127757200D01*
X166458333Y-127757200D02*
X166553571Y-127804819D01*
X166553571Y-127804819D02*
X166744047Y-127804819D01*
X166744047Y-127804819D02*
X166839285Y-127757200D01*
X166839285Y-127757200D02*
X166886904Y-127709580D01*
X166886904Y-127709580D02*
X166934523Y-127614342D01*
X166934523Y-127614342D02*
X166934523Y-126804819D01*
X167363095Y-126900057D02*
X167410714Y-126852438D01*
X167410714Y-126852438D02*
X167505952Y-126804819D01*
X167505952Y-126804819D02*
X167744047Y-126804819D01*
X167744047Y-126804819D02*
X167839285Y-126852438D01*
X167839285Y-126852438D02*
X167886904Y-126900057D01*
X167886904Y-126900057D02*
X167934523Y-126995295D01*
X167934523Y-126995295D02*
X167934523Y-127090533D01*
X167934523Y-127090533D02*
X167886904Y-127233390D01*
X167886904Y-127233390D02*
X167315476Y-127804819D01*
X167315476Y-127804819D02*
X167934523Y-127804819D01*
X193666667Y-131157200D02*
X193809524Y-131204819D01*
X193809524Y-131204819D02*
X194047619Y-131204819D01*
X194047619Y-131204819D02*
X194142857Y-131157200D01*
X194142857Y-131157200D02*
X194190476Y-131109580D01*
X194190476Y-131109580D02*
X194238095Y-131014342D01*
X194238095Y-131014342D02*
X194238095Y-130919104D01*
X194238095Y-130919104D02*
X194190476Y-130823866D01*
X194190476Y-130823866D02*
X194142857Y-130776247D01*
X194142857Y-130776247D02*
X194047619Y-130728628D01*
X194047619Y-130728628D02*
X193857143Y-130681009D01*
X193857143Y-130681009D02*
X193761905Y-130633390D01*
X193761905Y-130633390D02*
X193714286Y-130585771D01*
X193714286Y-130585771D02*
X193666667Y-130490533D01*
X193666667Y-130490533D02*
X193666667Y-130395295D01*
X193666667Y-130395295D02*
X193714286Y-130300057D01*
X193714286Y-130300057D02*
X193761905Y-130252438D01*
X193761905Y-130252438D02*
X193857143Y-130204819D01*
X193857143Y-130204819D02*
X194095238Y-130204819D01*
X194095238Y-130204819D02*
X194238095Y-130252438D01*
X194571429Y-130204819D02*
X194809524Y-131204819D01*
X194809524Y-131204819D02*
X195000000Y-130490533D01*
X195000000Y-130490533D02*
X195190476Y-131204819D01*
X195190476Y-131204819D02*
X195428572Y-130204819D01*
X196333333Y-131204819D02*
X195761905Y-131204819D01*
X196047619Y-131204819D02*
X196047619Y-130204819D01*
X196047619Y-130204819D02*
X195952381Y-130347676D01*
X195952381Y-130347676D02*
X195857143Y-130442914D01*
X195857143Y-130442914D02*
X195761905Y-130490533D01*
X184100595Y-111004819D02*
X184100595Y-111814342D01*
X184100595Y-111814342D02*
X184148214Y-111909580D01*
X184148214Y-111909580D02*
X184195833Y-111957200D01*
X184195833Y-111957200D02*
X184291071Y-112004819D01*
X184291071Y-112004819D02*
X184481547Y-112004819D01*
X184481547Y-112004819D02*
X184576785Y-111957200D01*
X184576785Y-111957200D02*
X184624404Y-111909580D01*
X184624404Y-111909580D02*
X184672023Y-111814342D01*
X184672023Y-111814342D02*
X184672023Y-111004819D01*
X185672023Y-112004819D02*
X185100595Y-112004819D01*
X185386309Y-112004819D02*
X185386309Y-111004819D01*
X185386309Y-111004819D02*
X185291071Y-111147676D01*
X185291071Y-111147676D02*
X185195833Y-111242914D01*
X185195833Y-111242914D02*
X185100595Y-111290533D01*
X159540476Y-112654819D02*
X159064286Y-112654819D01*
X159064286Y-112654819D02*
X159016667Y-113131009D01*
X159016667Y-113131009D02*
X159064286Y-113083390D01*
X159064286Y-113083390D02*
X159159524Y-113035771D01*
X159159524Y-113035771D02*
X159397619Y-113035771D01*
X159397619Y-113035771D02*
X159492857Y-113083390D01*
X159492857Y-113083390D02*
X159540476Y-113131009D01*
X159540476Y-113131009D02*
X159588095Y-113226247D01*
X159588095Y-113226247D02*
X159588095Y-113464342D01*
X159588095Y-113464342D02*
X159540476Y-113559580D01*
X159540476Y-113559580D02*
X159492857Y-113607200D01*
X159492857Y-113607200D02*
X159397619Y-113654819D01*
X159397619Y-113654819D02*
X159159524Y-113654819D01*
X159159524Y-113654819D02*
X159064286Y-113607200D01*
X159064286Y-113607200D02*
X159016667Y-113559580D01*
X159873810Y-112654819D02*
X160207143Y-113654819D01*
X160207143Y-113654819D02*
X160540476Y-112654819D01*
X160635715Y-113750057D02*
X161397619Y-113750057D01*
X161635715Y-113654819D02*
X161635715Y-112654819D01*
X161635715Y-112654819D02*
X161969048Y-113369104D01*
X161969048Y-113369104D02*
X162302381Y-112654819D01*
X162302381Y-112654819D02*
X162302381Y-113654819D01*
X162730953Y-113369104D02*
X163207143Y-113369104D01*
X162635715Y-113654819D02*
X162969048Y-112654819D01*
X162969048Y-112654819D02*
X163302381Y-113654819D01*
X163635715Y-113654819D02*
X163635715Y-112654819D01*
X164111905Y-113654819D02*
X164111905Y-112654819D01*
X164111905Y-112654819D02*
X164683333Y-113654819D01*
X164683333Y-113654819D02*
X164683333Y-112654819D01*
X165683333Y-113654819D02*
X165111905Y-113654819D01*
X165397619Y-113654819D02*
X165397619Y-112654819D01*
X165397619Y-112654819D02*
X165302381Y-112797676D01*
X165302381Y-112797676D02*
X165207143Y-112892914D01*
X165207143Y-112892914D02*
X165111905Y-112940533D01*
X137833333Y-119204580D02*
X137785714Y-119252200D01*
X137785714Y-119252200D02*
X137642857Y-119299819D01*
X137642857Y-119299819D02*
X137547619Y-119299819D01*
X137547619Y-119299819D02*
X137404762Y-119252200D01*
X137404762Y-119252200D02*
X137309524Y-119156961D01*
X137309524Y-119156961D02*
X137261905Y-119061723D01*
X137261905Y-119061723D02*
X137214286Y-118871247D01*
X137214286Y-118871247D02*
X137214286Y-118728390D01*
X137214286Y-118728390D02*
X137261905Y-118537914D01*
X137261905Y-118537914D02*
X137309524Y-118442676D01*
X137309524Y-118442676D02*
X137404762Y-118347438D01*
X137404762Y-118347438D02*
X137547619Y-118299819D01*
X137547619Y-118299819D02*
X137642857Y-118299819D01*
X137642857Y-118299819D02*
X137785714Y-118347438D01*
X137785714Y-118347438D02*
X137833333Y-118395057D01*
X138785714Y-119299819D02*
X138214286Y-119299819D01*
X138500000Y-119299819D02*
X138500000Y-118299819D01*
X138500000Y-118299819D02*
X138404762Y-118442676D01*
X138404762Y-118442676D02*
X138309524Y-118537914D01*
X138309524Y-118537914D02*
X138214286Y-118585533D01*
X162146905Y-111829819D02*
X162146905Y-110829819D01*
X162146905Y-110829819D02*
X162385000Y-110829819D01*
X162385000Y-110829819D02*
X162527857Y-110877438D01*
X162527857Y-110877438D02*
X162623095Y-110972676D01*
X162623095Y-110972676D02*
X162670714Y-111067914D01*
X162670714Y-111067914D02*
X162718333Y-111258390D01*
X162718333Y-111258390D02*
X162718333Y-111401247D01*
X162718333Y-111401247D02*
X162670714Y-111591723D01*
X162670714Y-111591723D02*
X162623095Y-111686961D01*
X162623095Y-111686961D02*
X162527857Y-111782200D01*
X162527857Y-111782200D02*
X162385000Y-111829819D01*
X162385000Y-111829819D02*
X162146905Y-111829819D01*
X163670714Y-111829819D02*
X163099286Y-111829819D01*
X163385000Y-111829819D02*
X163385000Y-110829819D01*
X163385000Y-110829819D02*
X163289762Y-110972676D01*
X163289762Y-110972676D02*
X163194524Y-111067914D01*
X163194524Y-111067914D02*
X163099286Y-111115533D01*
D40*
%TO.C,C2*%
X144380000Y-122495000D02*
X144380000Y-125145000D01*
X141620000Y-125145000D02*
X144380000Y-125145000D01*
X141620000Y-122495000D02*
X144380000Y-122495000D01*
X141620000Y-122495000D02*
X141620000Y-125145000D01*
X141620000Y-121225000D02*
X141620000Y-119845000D01*
X141620000Y-119845000D02*
X143000000Y-119845000D01*
%TO.C,U3*%
X158390000Y-95390000D02*
X159090000Y-95390000D01*
X158390000Y-96090000D02*
X158390000Y-95390000D01*
X158390000Y-109610000D02*
X158390000Y-108910000D01*
X159090000Y-109610000D02*
X158390000Y-109610000D01*
X171910000Y-95390000D02*
X172610000Y-95390000D01*
X172610000Y-95390000D02*
X172610000Y-96090000D01*
X172610000Y-108910000D02*
X172610000Y-109610000D01*
X172610000Y-109610000D02*
X171910000Y-109610000D01*
X157750000Y-96090000D02*
X157410000Y-95620000D01*
X158090000Y-95620000D01*
X157750000Y-96090000D01*
G36*
X157750000Y-96090000D02*
G01*
X157410000Y-95620000D01*
X158090000Y-95620000D01*
X157750000Y-96090000D01*
G37*
%TO.C,C3*%
X150880000Y-122495000D02*
X150880000Y-125145000D01*
X148120000Y-125145000D02*
X150880000Y-125145000D01*
X148120000Y-122495000D02*
X150880000Y-122495000D01*
X148120000Y-122495000D02*
X148120000Y-125145000D01*
X148120000Y-121225000D02*
X148120000Y-119845000D01*
X148120000Y-119845000D02*
X149500000Y-119845000D01*
%TO.C,J1*%
X131380000Y-93230000D02*
X131380000Y-95880000D01*
X128620000Y-95880000D02*
X131380000Y-95880000D01*
X128620000Y-93230000D02*
X131380000Y-93230000D01*
X128620000Y-93230000D02*
X128620000Y-95880000D01*
X128620000Y-91960000D02*
X128620000Y-90580000D01*
X128620000Y-90580000D02*
X130000000Y-90580000D01*
%TO.C,J2*%
X199380000Y-92420000D02*
X199380000Y-105230000D01*
X196620000Y-105230000D02*
X199380000Y-105230000D01*
X196620000Y-92420000D02*
X199380000Y-92420000D01*
X196620000Y-92420000D02*
X196620000Y-105230000D01*
X196620000Y-91150000D02*
X196620000Y-89770000D01*
X196620000Y-89770000D02*
X198000000Y-89770000D01*
%TO.C,R_BOOT1*%
X144437742Y-107022500D02*
X144912258Y-107022500D01*
X144437742Y-105977500D02*
X144912258Y-105977500D01*
%TO.C,R_RST1*%
X145087742Y-115022500D02*
X145562258Y-115022500D01*
X145087742Y-113977500D02*
X145562258Y-113977500D01*
%TO.C,R1*%
X144437742Y-100522500D02*
X144912258Y-100522500D01*
X144437742Y-99477500D02*
X144912258Y-99477500D01*
%TO.C,U2*%
X164175000Y-128800000D02*
X164175000Y-129750000D01*
X164175000Y-139200000D02*
X164175000Y-138250000D01*
X165540000Y-128800000D02*
X164175000Y-128800000D01*
X165540000Y-139200000D02*
X164175000Y-139200000D01*
X161350000Y-129790000D02*
X161010000Y-129320000D01*
X161690000Y-129320000D01*
X161350000Y-129790000D01*
G36*
X161350000Y-129790000D02*
G01*
X161010000Y-129320000D01*
X161690000Y-129320000D01*
X161350000Y-129790000D01*
G37*
%TO.C,SW1*%
X197750000Y-133500000D02*
X197750000Y-135500000D01*
X196700000Y-136800000D02*
X196250000Y-137250000D01*
X196700000Y-132200000D02*
X196250000Y-131750000D01*
X193750000Y-137250000D02*
X196250000Y-137250000D01*
X193750000Y-131750000D02*
X196250000Y-131750000D01*
X193300000Y-136800000D02*
X193750000Y-137250000D01*
X193300000Y-132200000D02*
X193750000Y-131750000D01*
X192250000Y-133500000D02*
X192250000Y-135500000D01*
%TO.C,U1*%
X183122500Y-113000000D02*
X182792500Y-113240000D01*
X182792500Y-112760000D01*
X183122500Y-113000000D01*
G36*
X183122500Y-113000000D02*
G01*
X182792500Y-113240000D01*
X182792500Y-112760000D01*
X183122500Y-113000000D01*
G37*
X186472500Y-115110000D02*
X183252500Y-115110000D01*
X186472500Y-114935000D02*
X186472500Y-115110000D01*
X186472500Y-112390000D02*
X186472500Y-112565000D01*
X183252500Y-115110000D02*
X183252500Y-114935000D01*
X183252500Y-112565000D02*
X183252500Y-112390000D01*
X183252500Y-112390000D02*
X186472500Y-112390000D01*
%TO.C,5V_MAIN1*%
X161939758Y-115310000D02*
X162760242Y-115310000D01*
X161939758Y-114190000D02*
X162760242Y-114190000D01*
%TO.C,C1*%
X137880000Y-121495000D02*
X137880000Y-124145000D01*
X135120000Y-124145000D02*
X137880000Y-124145000D01*
X135120000Y-121495000D02*
X137880000Y-121495000D01*
X135120000Y-121495000D02*
X135120000Y-124145000D01*
X135120000Y-120225000D02*
X135120000Y-118845000D01*
X135120000Y-118845000D02*
X136500000Y-118845000D01*
%TO.C,D1*%
X150140000Y-113500000D02*
X150140000Y-115500000D01*
X150140000Y-113500000D02*
X154150000Y-113500000D01*
X150140000Y-115500000D02*
X154150000Y-115500000D01*
%TD*%
M02*
